<svg width="52" height="57" viewBox="0 0 52 57" fill="none" xmlns="http://www.w3.org/2000/svg">
<path d="M22.3004 0.978343C24.5897 -0.326114 27.4103 -0.326114 29.6996 0.978343L48.3004 11.5771C50.5897 12.8816 52 15.2923 52 17.9012V39.0988C52 41.7077 50.5897 44.1184 48.3004 45.4229L29.6996 56.0217C27.4103 57.3261 24.5897 57.3261 22.3004 56.0217L3.69959 45.4229C1.41028 44.1184 0 41.7077 0 39.0988V17.9012C0 15.2923 1.41028 12.8816 3.6996 11.5771L22.3004 0.978343Z" fill="#FFC816"/>
<path d="M44.6702 34.5777C44.3985 34.0589 43.8609 33.7677 43.3033 33.7999C43.1439 33.5845 42.9212 33.4255 42.6605 33.344C42.3355 33.2423 41.9902 33.2732 41.6886 33.4308C41.3868 33.5884 41.1645 33.854 41.0628 34.1786C40.9857 34.4244 40.9848 34.6816 41.0573 34.9228C40.6951 35.3275 40.6012 35.9307 40.8675 36.4394C41.1072 36.8966 41.5754 37.1585 42.0595 37.1585C42.2691 37.1585 42.4816 37.1095 42.6798 37.0058C42.8389 36.9228 42.9786 36.8084 43.0914 36.6719C43.4144 36.7378 43.7556 36.6935 44.056 36.5365C44.4 36.3569 44.6534 36.0541 44.7694 35.6842C44.8854 35.3142 44.8501 34.9213 44.6702 34.5777ZM43.8119 35.3848C43.7759 35.4993 43.6975 35.593 43.5909 35.6488C43.4476 35.7234 43.2741 35.7155 43.1375 35.6277C43.004 35.5418 42.8376 35.5241 42.6893 35.5797C42.5407 35.6355 42.4272 35.7583 42.3835 35.9107C42.3575 36.0012 42.2976 36.0747 42.2146 36.118C42.049 36.2049 41.8434 36.1405 41.7566 35.9749C41.6699 35.8093 41.7342 35.604 41.8973 35.5188L41.9123 35.5115C42.0517 35.4436 42.1517 35.3151 42.1834 35.1634C42.2149 35.0117 42.1745 34.8539 42.0737 34.7361C42.0599 34.7198 42.0481 34.7028 42.0388 34.6849C42.0051 34.6206 41.9986 34.5471 42.0202 34.478C42.0418 34.4089 42.0892 34.3523 42.1537 34.3187C42.193 34.2982 42.2359 34.2877 42.2791 34.2877C42.3064 34.2877 42.3337 34.2919 42.3607 34.3002C42.4298 34.3218 42.4866 34.3692 42.5201 34.4331C42.5298 34.4517 42.5374 34.4717 42.5429 34.4926C42.5788 34.6324 42.6732 34.7498 42.8021 34.815C42.9308 34.8799 43.0815 34.8867 43.2156 34.8329C43.4303 34.747 43.6735 34.8368 43.781 35.0422C43.8369 35.1486 43.8477 35.2702 43.8119 35.3848Z" fill="#2E2E2E"/>
<path d="M38.3178 28.5109C38.3599 28.6528 38.3992 28.7993 38.4342 28.9461C38.4893 29.1761 38.695 29.3308 38.9218 29.3308C38.9605 29.3308 38.9996 29.3262 39.0388 29.3169C39.3082 29.2527 39.4745 28.9823 39.4101 28.7132C39.3709 28.5489 39.3269 28.3849 39.2795 28.2258C39.2007 27.9607 38.9216 27.8092 38.6558 27.8881C38.3903 27.9668 38.2389 28.2457 38.3178 28.5109Z" fill="#2E2E2E"/>
<path d="M34.965 24.2378C35.7597 24.7684 36.4427 25.3899 36.9949 26.0846C37.1654 26.2991 37.3258 26.5239 37.4717 26.7527C37.5548 26.8831 37.6357 27.0187 37.7117 27.1555C37.8034 27.3204 37.9744 27.4133 38.1507 27.4133C38.2331 27.4133 38.3167 27.393 38.3938 27.3502C38.6361 27.2158 38.7234 26.9108 38.5888 26.669C38.503 26.5147 38.4119 26.3617 38.3179 26.2144C38.1535 25.9565 37.9727 25.7031 37.7806 25.4617C37.1636 24.6855 36.4041 23.9935 35.5227 23.4049C35.2925 23.251 34.9809 23.313 34.8269 23.5428C34.6729 23.7728 34.7347 24.084 34.965 24.2378Z" fill="#2E2E2E"/>
<path d="M16.4274 26.1798C16.5063 26.2249 16.5923 26.2465 16.677 26.2465C16.8507 26.2465 17.0196 26.1563 17.1124 25.9951C17.2477 25.76 17.3005 25.6893 17.4972 25.4265L17.5129 25.4056C18.0142 24.7355 18.6266 24.143 19.3333 23.6445C19.5596 23.4849 19.6135 23.1723 19.4536 22.9463C19.2937 22.7205 18.9807 22.6665 18.7545 22.8262C17.9617 23.3853 17.2736 24.0515 16.709 24.806L16.6934 24.827C16.4915 25.0968 16.408 25.2086 16.2426 25.4957C16.1045 25.7356 16.1873 26.0418 16.4274 26.1798Z" fill="#2E2E2E"/>
<path d="M15.6014 27.9911C15.6745 28.0294 15.7533 28.0474 15.8313 28.0474C16.003 28.0474 16.1708 27.9596 16.2655 27.8048C16.2934 27.7592 16.3131 27.7109 16.3251 27.6616C16.343 27.6176 16.3836 27.5214 16.4741 27.317C16.5861 27.0638 16.4716 26.768 16.2182 26.6561C15.9646 26.5444 15.6685 26.6586 15.5565 26.9117C15.4683 27.1109 15.4206 27.223 15.3952 27.2856C15.3617 27.368 15.2145 27.7888 15.6014 27.9911Z" fill="#2E2E2E"/>
<path d="M25.3003 24.4839C25.2543 24.4769 24.1528 24.316 22.774 24.806C21.5173 25.2524 19.7706 26.3457 18.5859 29.0192C18.5172 29.1742 18.5316 29.3533 18.6242 29.4952C18.7168 29.6373 18.875 29.7229 19.0447 29.7229H25.2242C25.5013 29.7229 25.7258 29.4987 25.7258 29.2219V24.9792C25.7258 24.7318 25.5451 24.5215 25.3003 24.4839ZM24.7225 28.7209H19.8495C21.4455 25.7948 23.7709 25.4574 24.7225 25.4515V28.7209Z" fill="#2E2E2E"/>
<path d="M33.5917 26.5208C32.387 25.4188 30.2475 24.1662 26.8958 24.4566C26.6365 24.4791 26.4375 24.6959 26.4375 24.9557V29.2238C26.4375 29.5006 26.662 29.7248 26.9392 29.7248H34.9641C35.1299 29.7248 35.2851 29.6428 35.3785 29.5059C35.472 29.3691 35.4916 29.1949 35.4309 29.0406C35.41 28.9872 34.9014 27.7189 33.5917 26.5208ZM27.4408 28.7228V25.4247C29.619 25.3298 31.4477 25.9353 32.8809 27.2296C33.466 27.7579 33.8722 28.3077 34.1312 28.7227H27.4408V28.7228Z" fill="#2E2E2E"/>
<path d="M25.0954 30.9375H23.808C23.572 30.9375 23.3789 31.1304 23.3789 31.366C23.3789 31.6017 23.5721 31.7946 23.808 31.7946H25.0954C25.3314 31.7946 25.5245 31.6017 25.5245 31.366C25.5245 31.1304 25.3314 30.9375 25.0954 30.9375Z" fill="#2E2E2E"/>
<path d="M34.9469 30.9375H33.6595C33.4235 30.9375 33.2305 31.1304 33.2305 31.366C33.2305 31.6017 33.4236 31.7946 33.6595 31.7946H34.9469C35.183 31.7946 35.3761 31.6017 35.3761 31.366C35.3761 31.1304 35.183 30.9375 34.9469 30.9375Z" fill="#2E2E2E"/>
<path d="M40.2696 32.131C40.1915 31.4806 39.9304 31.0093 39.4936 30.73C39.0724 30.4606 38.6045 30.4522 38.291 30.4907C37.4674 27.6557 35.6219 25.2001 33.311 23.9802C32.5252 23.5653 31.7126 23.2629 30.9075 23.0454H33.66C33.9709 23.0454 34.2229 22.7937 34.2229 22.4833C34.2229 22.1729 33.9708 21.9212 33.66 21.9212H32.6327C32.7317 21.7344 32.7884 21.522 32.7884 21.2965V18.9699C32.7884 18.2308 32.1863 17.6295 31.4462 17.6295H30.1286C30.157 17.5212 30.1735 17.4082 30.1735 17.2911V14.9646C30.1735 14.2256 29.5714 13.6242 28.8314 13.6242H28.1738L28.4253 13.393C28.629 13.2055 28.6421 12.8886 28.4544 12.6851C28.2666 12.4814 27.9493 12.4685 27.7455 12.656L27.0528 13.2933L26.3708 12.6581C26.1681 12.4693 25.8509 12.4804 25.6617 12.6828C25.4728 12.8851 25.4839 13.2021 25.6865 13.3909L25.9371 13.6242H25.2827C24.5427 13.6242 23.9405 14.2256 23.9405 14.9646V17.2912C23.9405 17.4083 23.9572 17.5213 23.9855 17.6297H22.6679C21.9278 17.6297 21.3256 18.2309 21.3256 18.97V21.2966C21.3256 21.5222 21.3823 21.7346 21.4813 21.9214H20.4541C20.1431 21.9214 19.8912 22.1731 19.8912 22.4834C19.8912 22.7938 20.1432 23.0455 20.4541 23.0455H22.8542C21.3842 23.4372 19.8425 24.1308 18.7495 25.3533C18.2477 25.9146 17.8693 26.546 17.5033 27.1565C17.4242 27.2884 17.3451 27.4205 17.2646 27.552C17.245 27.584 17.206 27.6547 17.1546 27.7489C16.9145 28.1892 16.7398 28.4835 16.633 28.6276H14.6371C12.3405 28.6276 10.377 30.1892 9.61351 32.3772C9.28636 32.3638 8.76657 32.4089 8.33619 32.7506C8.05787 32.9717 7.72157 33.4024 7.70032 34.1994C7.68292 34.8541 7.87244 35.3583 8.26395 35.6981C8.4386 35.8496 8.63116 35.9473 8.81904 36.0094C8.73499 36.1286 8.68527 36.2734 8.68527 36.4295V36.5658C8.68527 36.9702 9.01666 37.3011 9.42162 37.3011H10.7667C10.9021 37.3336 11.0424 37.3522 11.187 37.3522H11.9692C12.1381 38.5539 12.9056 39.5664 13.9598 40.0786H11.4528C11.1758 40.0786 10.9512 40.3028 10.9512 40.5795C10.9512 40.8563 11.1758 41.0805 11.4528 41.0805H39.1246C39.4017 41.0805 39.6263 40.8563 39.6263 40.5795C39.6263 40.3028 39.4017 40.0786 39.1246 40.0786H33.8517C34.906 39.5664 35.6734 38.5539 35.8424 37.3522H36.8704C37.0163 37.3522 37.1581 37.3341 37.2947 37.3011H38.6464C39.0513 37.3011 39.3827 36.9702 39.3827 36.5658V36.5198H39.6794C39.9565 36.5198 40.1811 36.2956 40.1811 36.0189V34.4336C40.1811 34.1569 39.9565 33.9326 39.6794 33.9326H39.5073C39.6278 33.8598 39.745 33.77 39.8514 33.6566C40.0945 33.3975 40.3646 32.9225 40.2696 32.131ZM9.21962 35.0807C9.11498 35.0577 9.00752 35.0157 8.92212 34.9417C8.76791 34.8079 8.69426 34.5671 8.7034 34.226C8.7121 33.898 8.79779 33.6663 8.95772 33.5372C9.05449 33.4592 9.17778 33.4169 9.29914 33.3957L9.21962 35.0807ZM30.1736 18.6316H31.4463C31.6299 18.6316 31.7852 18.7865 31.7852 18.9699V19.6323H30.1736V18.6316ZM30.1736 20.6341H31.7852V21.2965C31.7852 21.4799 31.6299 21.6348 31.4463 21.6348H30.1736V20.6341ZM27.534 14.6262H28.8315C29.0151 14.6262 29.1703 14.7812 29.1703 14.9646V15.627H27.534V14.6262ZM27.534 16.6289H29.1703V17.2912C29.1703 17.4746 29.0151 17.6297 28.8315 17.6297H27.8977H27.534V16.6289ZM27.5587 19.6322V18.9699C27.5587 18.7865 27.714 18.6315 27.8977 18.6315H28.8315H29.1703V19.6321H27.5587V19.6322ZM29.1703 20.6341V21.6348H27.8977C27.714 21.6348 27.5587 21.4798 27.5587 21.2964V20.6341H29.1703V20.6341ZM24.944 14.9646C24.944 14.7812 25.0992 14.6262 25.2828 14.6262H26.5308V15.6269H24.944V14.9646ZM24.944 16.6289H26.5308V17.6296H26.2166H25.2827C25.0991 17.6296 24.9439 17.4746 24.9439 17.2912V16.6289H24.944ZM24.944 18.6316H25.2828H26.2166C26.4003 18.6316 26.5555 18.7865 26.5555 18.9699V19.6323H24.944V18.6316ZM24.944 20.6341H26.5555V21.2965C26.5555 21.4799 26.4003 21.6348 26.2166 21.6348H24.944V20.6341ZM22.3291 18.9699C22.3291 18.7865 22.4843 18.6316 22.6681 18.6316H23.9407V19.6322H22.3291V18.9699ZM22.6681 21.6348C22.4843 21.6348 22.3291 21.4799 22.3291 21.2965V20.6341H23.9407V21.6348H22.6681V21.6348ZM16.5682 37.3522C16.381 37.74 15.9849 38.0083 15.5249 38.0083C15.065 38.0083 14.6688 37.74 14.4817 37.3522C14.4085 37.2004 14.3663 37.031 14.3663 36.8512C14.3663 36.2122 14.885 35.6942 15.5249 35.6942C16.1649 35.6942 16.6836 36.2121 16.6836 36.8512C16.6836 37.031 16.6414 37.2004 16.5682 37.3522ZM17.09 40.0786C18.1443 39.5665 18.9117 38.554 19.0807 37.3523H28.7312C28.9001 38.554 29.6675 39.5665 30.7217 40.0786H17.09ZM33.33 37.3522C33.1428 37.74 32.7466 38.0083 32.2867 38.0083C31.8268 38.0083 31.4306 37.74 31.2435 37.3522C31.1703 37.2004 31.128 37.031 31.128 36.8512C31.128 36.2122 31.6468 35.6942 32.2867 35.6942C32.9267 35.6942 33.4454 36.2121 33.4454 36.8512C33.4454 37.031 33.4032 37.2004 33.33 37.3522ZM37.7859 34.9346C37.782 35.0964 37.7765 35.248 37.7702 35.3872C37.7681 35.4316 37.7636 35.4754 37.7567 35.518C37.7468 35.579 37.7319 35.6377 37.7129 35.6942H36.2384H35.6854C35.2021 34.2827 33.8617 33.2647 32.2868 33.2647C30.7118 33.2647 29.3713 34.2828 28.8883 35.6942H18.9236C18.4404 34.2827 17.1 33.2647 15.5251 33.2647C13.9501 33.2647 12.6096 34.2828 12.1265 35.6942H10.3393C10.299 35.578 10.2761 35.452 10.2761 35.3199V34.4C10.2761 31.7695 12.2324 29.6294 14.6372 29.6294H16.8124C17.2082 29.6294 17.453 29.2967 18.0359 28.228C18.0757 28.1549 18.1054 28.0996 18.1208 28.0743C18.2029 27.9404 18.2836 27.8057 18.3643 27.671C18.7219 27.0744 19.0597 26.5108 19.498 26.0206C21.2118 24.1036 24.3066 23.6631 25.999 23.5712C27.815 23.4726 30.4765 23.6171 32.8423 24.8659C35.286 26.1561 37.2209 29.1476 37.6571 32.31C37.7862 33.2462 37.8034 34.1962 37.7859 34.9346ZM39.1778 35.518H38.7646C38.767 35.4895 38.7712 35.4616 38.7724 35.4328C38.7794 35.2802 38.7854 35.1132 38.7894 34.9347H39.1778V35.518ZM39.1219 32.9685C39.0377 33.0597 38.9218 33.1196 38.8049 33.1582L38.6381 31.4796C38.7484 31.4877 38.8622 31.515 38.9561 31.5761C39.1263 31.6868 39.233 31.9136 39.2733 32.2502C39.3125 32.576 39.2615 32.8177 39.1219 32.9685Z" fill="#2E2E2E"/>
<path d="M43.5466 40.0781H41.2165C40.9394 40.0781 40.7148 40.3023 40.7148 40.5791C40.7148 40.8559 40.9394 41.0801 41.2165 41.0801H43.5466C43.8237 41.0801 44.0483 40.8559 44.0483 40.5791C44.0483 40.3023 43.8236 40.0781 43.5466 40.0781Z" fill="#2E2E2E"/>
<path d="M9.31935 40.0781H7.50165C7.22452 40.0781 7 40.3023 7 40.5791C7 40.8559 7.22452 41.0801 7.50165 41.0801H9.31935C9.59649 41.0801 9.82101 40.8559 9.82101 40.5791C9.82101 40.3023 9.59649 40.0781 9.31935 40.0781Z" fill="#2E2E2E"/>
</svg>
