<svg width="52" height="57" viewBox="0 0 52 57" fill="none" xmlns="http://www.w3.org/2000/svg">
<path d="M22.3004 0.978343C24.5897 -0.326114 27.4103 -0.326114 29.6996 0.978343L48.3004 11.5771C50.5897 12.8816 52 15.2923 52 17.9012V39.0988C52 41.7077 50.5897 44.1184 48.3004 45.4229L29.6996 56.0217C27.4103 57.3261 24.5897 57.3261 22.3004 56.0217L3.69959 45.4229C1.41028 44.1184 0 41.7077 0 39.0988V17.9012C0 15.2923 1.41028 12.8816 3.6996 11.5771L22.3004 0.978343Z" fill="#FFC816"/>
<path d="M35.1647 17.8552C35.0897 17.4021 34.843 17.0055 34.4702 16.7384C34.0976 16.4713 33.6436 16.3657 33.1913 16.4408L27.0945 17.456L26.8207 16.9053C26.6267 16.515 26.2926 16.2238 25.8801 16.0853C25.4674 15.9468 25.0257 15.9777 24.6363 16.1723L19.5528 18.7117L18.1028 18.9531C17.4545 19.0611 16.9517 19.5229 16.7569 20.1083L11.9021 22.5334C11.0983 22.9348 10.7702 23.917 11.1708 24.7227L18.8142 40.0948C19.0083 40.4851 19.3424 40.7763 19.755 40.9147C19.9249 40.9718 20.0996 41 20.2736 41C20.5223 41 20.7695 40.9423 20.9986 40.8277L21.4969 40.5789C21.5592 40.5753 21.6215 40.5696 21.6839 40.5593L36.7723 38.047C37.2243 37.9717 37.6201 37.7245 37.8866 37.3509C38.1532 36.9773 38.2585 36.5221 38.1835 36.069L35.1647 17.8552ZM25.0603 17.0249C25.1557 16.9772 25.2587 16.9532 25.3623 16.9532C25.4347 16.9532 25.5075 16.965 25.5783 16.9887C25.75 17.0464 25.8893 17.1676 25.97 17.3302L26.1139 17.6193L22.7487 18.1796L25.0603 17.0249ZM20.0568 40.0113C19.8849 39.9537 19.7458 39.8325 19.6649 39.6698L12.0215 24.2979C11.8547 23.9623 11.9913 23.5532 12.3261 23.386L16.7338 21.1843L16.867 21.9878L13.8011 23.5192C13.2093 23.8148 12.9677 24.5381 13.2626 25.1313L18.7007 36.068C18.8312 36.3304 19.0451 36.5239 19.2943 36.6328L19.7107 39.1448C19.7667 39.4828 19.9184 39.7893 20.1464 40.0341C20.1163 40.0283 20.0863 40.0213 20.0568 40.0113ZM37.1135 36.7967C36.9946 36.9633 36.8182 37.0735 36.6165 37.1071L24.3623 39.1475L21.5281 39.6193C21.4464 39.633 21.3646 39.6326 21.2849 39.6203C21.1683 39.6022 21.0566 39.5575 20.9578 39.4867C20.7916 39.3676 20.6816 39.1908 20.6482 38.9886L20.2572 36.6297L20.0949 35.6501L17.9197 22.5261L17.7567 21.5431L17.6294 20.7748C17.6274 20.7628 17.6266 20.7508 17.6252 20.7387C17.5777 20.3351 17.8545 19.9601 18.2586 19.8928L19.8487 19.628L22.4613 19.1931L25.7611 18.6436L26.5573 18.511L27.5381 18.3478L33.3471 17.3805C33.3896 17.3735 33.4319 17.37 33.4741 17.37C33.6323 17.37 33.7862 17.4191 33.9173 17.5131C34.0836 17.6323 34.1936 17.8092 34.227 18.0113L37.2457 36.225C37.2793 36.4272 37.2323 36.6301 37.1135 36.7967Z" fill="#2E2E2E"/>
<path d="M35.7308 32.459C35.7308 32.4585 35.7308 32.458 35.7306 32.4575L35.2545 29.5855C35.2545 29.5854 35.2545 29.5854 35.2545 29.5854L33.5889 19.5353C33.5341 19.2042 33.3537 18.9143 33.0813 18.719C32.809 18.5238 32.477 18.4468 32.1466 18.5016L19.7438 20.5668C19.4135 20.6218 19.1243 20.8025 18.9295 21.0756C18.7347 21.3486 18.6577 21.6812 18.7125 22.0123L20.2251 31.1381C20.2251 31.1382 20.2251 31.1383 20.2251 31.1384L20.3696 32.0104L20.8603 34.9708C20.9621 35.585 21.4946 36.0216 22.0964 36.0216C22.1643 36.0216 22.2333 36.0161 22.3025 36.0046L29.026 34.885L33.5709 34.1282C33.5712 34.1282 33.5714 34.1281 33.5716 34.1281L34.6691 33.9453L34.7054 33.9393C35.3873 33.8257 35.8499 33.1773 35.7365 32.4938L35.7308 32.459ZM34.5134 33.0055L33.6326 33.1521L29.2396 29.4104L29.5374 28.876L30.2653 28.59L30.9125 28.8117C31.0633 28.8633 31.2293 28.8358 31.3557 28.7388L31.9047 28.3164L32.6382 28.346L34.3438 29.9045L34.7931 32.6146C34.8232 32.7994 34.6979 32.9747 34.5134 33.0055ZM30.0769 33.7443L27.5022 34.173L26.4912 34.3413L28.767 30.2582L32.405 33.3566L30.0769 33.7443ZM21.3265 31.9699L21.1628 30.9823C21.1586 30.9569 21.165 30.9306 21.1804 30.9101L22.2857 29.4354L22.9336 29.6568C22.9836 29.6739 23.0353 29.6822 23.0869 29.6822C23.1874 29.6822 23.2869 29.6502 23.3699 29.5886L23.8955 29.1982L24.5493 29.3958C24.6932 29.4394 24.8493 29.4119 24.9699 29.3221L25.4954 28.9308L26.1703 29.1278C26.3223 29.172 26.4869 29.1375 26.6087 29.0353L26.9724 28.7294L28.0288 29.6293L25.2911 34.5411L22.2358 35.0498C22.0217 35.0852 21.8187 34.94 21.7831 34.7255L21.3265 31.9699ZM19.7027 21.6296C19.7498 21.5635 19.8197 21.5199 19.8996 21.5066L32.3024 19.4414C32.3191 19.4387 32.3361 19.4372 32.3529 19.4372C32.4155 19.4372 32.4765 19.4567 32.5285 19.494C32.5945 19.5411 32.6379 19.6113 32.6512 19.6914L34.0921 28.3852L30.9771 25.5388C30.9713 25.5335 30.965 25.529 30.9589 25.5241C30.952 25.5183 30.9453 25.5124 30.9382 25.5071C30.9308 25.5018 30.9233 25.4971 30.9158 25.4923C30.9082 25.4874 30.9008 25.4821 30.893 25.4776C30.8856 25.4735 30.8781 25.4701 30.8707 25.4663C30.8622 25.4619 30.8538 25.4574 30.845 25.4536C30.8381 25.4506 30.8311 25.4483 30.8242 25.4458C30.8143 25.4421 30.8046 25.4382 30.7945 25.4352C30.7885 25.4333 30.7823 25.4321 30.7762 25.4306C30.7651 25.4276 30.754 25.4246 30.7425 25.4225C30.737 25.4215 30.7314 25.4211 30.7257 25.4203C30.7138 25.4186 30.7017 25.4167 30.6896 25.4159C30.6836 25.4155 30.6777 25.4157 30.672 25.4155C30.66 25.4151 30.6482 25.4146 30.6362 25.4152C30.6281 25.4155 30.6201 25.4167 30.612 25.4174C30.6029 25.4184 30.5939 25.4187 30.5849 25.42C30.5842 25.4201 30.5835 25.4204 30.5828 25.4205C30.5821 25.4206 30.5814 25.4206 30.5806 25.4207C30.5717 25.4222 30.563 25.4246 30.5542 25.4266C30.5461 25.4284 30.5378 25.4298 30.5296 25.432C30.5205 25.4346 30.5116 25.438 30.5026 25.4411C30.4947 25.4439 30.4865 25.4462 30.4787 25.4493C30.4696 25.4531 30.4609 25.4576 30.4521 25.4619C30.4448 25.4654 30.4374 25.4684 30.4304 25.4722C30.421 25.4773 30.4122 25.4832 30.4033 25.4889C30.3972 25.4927 30.3909 25.4961 30.3851 25.5002C30.3751 25.5071 30.3659 25.5149 30.3565 25.5225C30.3521 25.5261 30.3475 25.5293 30.3432 25.533C30.3328 25.5422 30.323 25.5522 30.3134 25.5623C30.3108 25.5651 30.3077 25.5676 30.3051 25.5706C30.2949 25.5819 30.2852 25.5941 30.276 25.6066C30.2745 25.6086 30.2727 25.6104 30.2712 25.6125C30.2606 25.6272 30.2509 25.6425 30.2419 25.6586L28.5013 28.7816L24.6656 25.5146C24.5659 25.4299 24.436 25.3895 24.3062 25.4043C24.3058 25.4044 24.3053 25.4042 24.3049 25.4043C24.279 25.4072 24.254 25.4138 24.2292 25.4208C24.2229 25.4225 24.2162 25.4229 24.2101 25.4249C24.1893 25.4318 24.1701 25.4419 24.1506 25.4515C24.1413 25.4559 24.1311 25.4589 24.1221 25.4641C24.1038 25.4745 24.0875 25.4881 24.0708 25.5008C24.062 25.5076 24.0522 25.5128 24.0438 25.5201C24.0239 25.5378 24.0064 25.5581 23.9895 25.5791C23.9859 25.5836 23.9814 25.5869 23.9779 25.5915L23.9779 25.5917C23.9778 25.5918 23.9777 25.5918 23.9776 25.592L23.9587 25.6172L20.9409 29.6435L19.6501 21.8561C19.6369 21.7761 19.6556 21.6956 19.7027 21.6296Z" fill="#2E2E2E"/>
<path d="M30.4714 23.9751C30.5585 23.9751 30.647 23.9679 30.7358 23.9531C31.1596 23.8825 31.5308 23.6507 31.7808 23.3003C32.0306 22.95 32.1293 22.5232 32.0589 22.0983V22.0984C31.9136 21.2213 31.0842 20.6258 30.2086 20.7721C29.7847 20.8427 29.4137 21.0744 29.1638 21.4248C28.9138 21.7751 28.8151 22.202 28.8854 22.6268C29.016 23.4149 29.6992 23.9751 30.4714 23.9751ZM29.9369 21.979C30.039 21.8356 30.1909 21.7408 30.3644 21.7119C30.4008 21.7058 30.4372 21.7028 30.4735 21.7028C30.6097 21.7028 30.742 21.7452 30.8549 21.8261C30.9979 21.9285 31.0925 22.0807 31.1212 22.2545V22.2546C31.1501 22.4284 31.1097 22.6031 31.0075 22.7463C30.9052 22.8896 30.7534 22.9845 30.58 23.0133C30.2225 23.0732 29.8824 22.8295 29.823 22.4707C29.7941 22.2969 29.8346 22.1222 29.9369 21.979Z" fill="#2E2E2E"/>
<path d="M22.5146 25.4428C22.5826 25.4428 22.6518 25.4372 22.7216 25.4255L25.9575 24.8868C26.7161 24.7603 27.043 24.1075 26.9739 23.5279C26.9162 23.0447 26.5788 22.5772 26.0233 22.4685C25.9177 22.1991 25.7191 21.8438 25.3573 21.5885C24.9638 21.3106 24.4832 21.2204 23.9292 21.3212C23.2513 21.4442 22.7651 21.7385 22.4842 22.1958C22.292 22.5087 22.238 22.833 22.2357 23.0921C22.199 23.1034 22.1611 23.116 22.1225 23.13C21.5317 23.3436 21.2181 23.9413 21.377 24.5508C21.5181 25.0921 21.9792 25.4428 22.5146 25.4428ZM22.4451 24.0261C22.6324 23.9585 22.7932 23.9431 22.793 23.9431C22.9359 23.9318 23.066 23.8564 23.1471 23.738C23.2282 23.6195 23.2517 23.4707 23.211 23.333C23.21 23.3296 23.1185 22.9803 23.2936 22.6953C23.4269 22.4783 23.6977 22.3315 24.0986 22.2586C24.9611 22.1031 25.157 22.7935 25.1958 23.0053C25.2369 23.2532 25.4621 23.4263 25.7126 23.4011L25.7376 23.3991C25.9645 23.3829 26.0185 23.5435 26.0302 23.6411C26.0419 23.7392 26.0279 23.9094 25.8019 23.947L22.5659 24.4858C22.3796 24.5172 22.3172 24.3889 22.2967 24.3101C22.2762 24.2314 22.2682 24.0902 22.4451 24.0261Z" fill="#2E2E2E"/>
<path d="M14.7734 33.9476L12.6536 29.5315C12.5398 29.2946 12.256 29.1949 12.0193 29.3089C11.7828 29.4229 11.6833 29.7076 11.7971 29.9447L13.9168 34.3607C13.9987 34.5311 14.1685 34.6305 14.3455 34.6305C14.4145 34.6305 14.4847 34.6154 14.5512 34.5834C14.7877 34.4692 14.8872 34.1846 14.7734 33.9476Z" fill="#2E2E2E"/>
<path d="M15.5099 35.3928C15.397 35.1552 15.1133 35.0544 14.8765 35.1675C14.6395 35.2806 14.5389 35.5648 14.6518 35.8024L14.8894 36.3025C14.9709 36.4739 15.1412 36.5741 15.3188 36.5741C15.3873 36.5741 15.4569 36.5593 15.5228 36.5279C15.7598 36.4147 15.8604 36.1305 15.7475 35.893L15.5099 35.3928Z" fill="#2E2E2E"/>
<path d="M36.9644 23.0399C37.0021 23.2737 37.2038 23.4403 37.4329 23.4403C37.458 23.4403 37.4836 23.4382 37.5093 23.434C37.7684 23.392 37.9446 23.1474 37.9025 22.8877L37.7608 22.0098C37.7188 21.7501 37.4757 21.573 37.2157 21.6157C36.9566 21.6576 36.7806 21.9023 36.8226 22.162L36.9644 23.0399Z" fill="#2E2E2E"/>
<path d="M38.1085 24.5137C38.0665 24.2538 37.8223 24.0771 37.5634 24.1196C37.3043 24.1617 37.1283 24.4062 37.1702 24.6659L38.0539 30.1366C38.0917 30.3705 38.2934 30.5369 38.5225 30.5369C38.5476 30.5369 38.5733 30.5349 38.599 30.5307C38.8581 30.4886 39.0341 30.244 38.9921 29.9844L38.1085 24.5137Z" fill="#2E2E2E"/>
</svg>
