<svg width="52" height="57" viewBox="0 0 52 57" fill="none" xmlns="http://www.w3.org/2000/svg">
<path d="M22.3004 0.978343C24.5897 -0.326114 27.4103 -0.326114 29.6996 0.978343L48.3004 11.5771C50.5897 12.8816 52 15.2923 52 17.9012V39.0988C52 41.7077 50.5897 44.1184 48.3004 45.4229L29.6996 56.0217C27.4103 57.3261 24.5897 57.3261 22.3004 56.0217L3.69959 45.4229C1.41028 44.1184 0 41.7077 0 39.0988V17.9012C0 15.2923 1.41028 12.8816 3.6996 11.5771L22.3004 0.978343Z" fill="#FFC816"/>
<path d="M31.7758 27.7287C31.8488 27.7994 31.9179 27.8664 31.9676 27.9279C32.1088 28.1024 32.0794 28.3592 32.0045 28.5413C31.932 28.718 31.7616 28.8251 31.4721 28.9612C31.2145 29.0822 31.1075 29.3816 31.2331 29.63C31.3231 29.8076 31.5077 29.911 31.7 29.911C31.7763 29.911 31.8538 29.8947 31.927 29.8603C32.2096 29.7275 32.7355 29.4804 32.9699 28.909C33.2034 28.3402 33.1347 27.7435 32.7862 27.3127C32.698 27.2037 32.6033 27.112 32.5118 27.0233C32.3868 26.9021 32.2688 26.7877 32.2381 26.6899C32.1273 26.3342 32.1716 25.8446 32.6611 25.6353C32.9231 25.5233 33.0414 25.2278 32.9251 24.9754C32.8089 24.7228 32.5023 24.6087 32.2402 24.7209C31.3571 25.0984 30.9475 26.0265 31.2442 26.9778C31.3495 27.3156 31.5859 27.5447 31.7758 27.7287Z" fill="#2E2E2E"/>
<path d="M34.3499 27.7286C34.4229 27.7994 34.4921 27.8663 34.5418 27.9279C34.6831 28.1025 34.6536 28.3592 34.5789 28.5413C34.5065 28.7179 34.3359 28.8251 34.0463 28.9612C33.7887 29.0822 33.6818 29.3816 33.8073 29.63C33.8973 29.8076 34.0819 29.911 34.2742 29.911C34.3506 29.911 34.428 29.8947 34.5013 29.8603C34.7838 29.7275 35.3099 29.4804 35.5442 28.909C35.7775 28.3402 35.7089 27.7435 35.3605 27.3128C35.2722 27.2037 35.1775 27.112 35.086 27.0232C34.9609 26.9021 34.843 26.7877 34.8123 26.6899C34.7014 26.3342 34.7457 25.8446 35.2354 25.6353C35.4973 25.5233 35.6156 25.2278 35.4993 24.9754C35.3831 24.7228 35.0767 24.6087 34.8145 24.7209C33.9314 25.0984 33.5217 26.0265 33.8184 26.9779C33.9238 27.3156 34.1601 27.5445 34.3499 27.7286Z" fill="#2E2E2E"/>
<path d="M36.9243 27.7287C36.9974 27.7994 37.0664 27.8664 37.1161 27.9279C37.2574 28.1024 37.2279 28.3592 37.1531 28.5413C37.0807 28.7179 36.9101 28.8251 36.6205 28.9612C36.363 29.0822 36.256 29.3816 36.3816 29.63C36.4715 29.8076 36.6561 29.911 36.8485 29.911C36.9247 29.911 37.0022 29.8947 37.0755 29.8603C37.358 29.7275 37.8842 29.4804 38.1184 28.909C38.3518 28.3402 38.2832 27.7435 37.9347 27.3127C37.8465 27.2037 37.7518 27.112 37.6603 27.0233C37.5353 26.9021 37.4173 26.7877 37.3866 26.6898C37.2758 26.3342 37.32 25.8446 37.8096 25.6353C38.0716 25.5233 38.1898 25.2278 38.0736 24.9754C37.9575 24.7228 37.651 24.6087 37.3888 24.7209C36.5055 25.0984 36.0959 26.0265 36.3926 26.9778C36.4981 27.3156 36.7345 27.5447 36.9243 27.7287Z" fill="#2E2E2E"/>
<path d="M24.741 24.0786H23.9919V23.0384V21.0138V20.2373H24.4389C25.2171 20.2373 25.8501 19.6273 25.8501 18.8773V17.6595C25.8501 16.9095 25.2171 16.2994 24.4389 16.2994H23.8946C23.8946 16.2994 23.8946 16.2993 23.8946 16.2993C23.8883 16.2757 23.8812 16.2524 23.8744 16.229C23.8682 16.2079 23.8624 16.1865 23.8557 16.1655C23.8482 16.142 23.8403 16.1189 23.8322 16.0956C23.8252 16.0751 23.8181 16.0545 23.8107 16.0342C23.8021 16.011 23.7933 15.9882 23.7842 15.9653C23.7763 15.9452 23.7681 15.9255 23.7598 15.9056C23.7503 15.8829 23.7407 15.8604 23.7306 15.838C23.7216 15.8182 23.7123 15.7988 23.703 15.7792C23.6925 15.7574 23.6822 15.7354 23.6714 15.7138C23.6608 15.6934 23.6497 15.6731 23.6389 15.6529C23.6193 15.6165 23.5991 15.5806 23.5781 15.5452C23.5659 15.5245 23.5539 15.5037 23.5412 15.4834C23.5289 15.4635 23.516 15.4442 23.5032 15.4247C23.4907 15.4059 23.4784 15.3869 23.4655 15.3682C23.4523 15.3489 23.4385 15.3298 23.4248 15.3109C23.4116 15.2926 23.3982 15.2744 23.3846 15.2564C23.3706 15.2379 23.3565 15.2196 23.3419 15.2013C23.3274 15.1831 23.3127 15.1651 23.2977 15.1471C23.2834 15.1299 23.2691 15.1126 23.2544 15.0957C23.2377 15.0763 23.2204 15.0574 23.2031 15.0385C23.1895 15.0236 23.1761 15.0084 23.1622 14.9937C23.1322 14.9621 23.1015 14.931 23.0702 14.9006C23.0564 14.8872 23.0421 14.8744 23.028 14.8614C23.0082 14.8429 22.9885 14.8245 22.9683 14.8064C22.9526 14.7925 22.9365 14.779 22.9205 14.7653C22.9011 14.7487 22.8814 14.7323 22.8616 14.7162C22.8452 14.7029 22.8285 14.6898 22.8119 14.6768C22.7913 14.6608 22.7706 14.6451 22.7497 14.6297C22.7332 14.6175 22.7167 14.6053 22.6999 14.5934C22.6772 14.5772 22.6541 14.5615 22.6309 14.546C22.6154 14.5355 22.6001 14.5249 22.5845 14.5148C22.5517 14.4937 22.5184 14.4731 22.4848 14.4531C22.4738 14.4466 22.4628 14.4401 22.4517 14.4337C22.4166 14.4133 22.381 14.3935 22.3449 14.3745C22.3297 14.3664 22.3141 14.3589 22.2988 14.3511C22.2718 14.3374 22.245 14.3239 22.2177 14.311C22.2004 14.3029 22.183 14.2949 22.1655 14.2871C22.1393 14.2753 22.113 14.2638 22.0865 14.2526C22.0687 14.2451 22.0508 14.2378 22.0328 14.2305C22.0052 14.2196 21.9773 14.209 21.9493 14.1988C21.9323 14.1925 21.9154 14.1861 21.8982 14.1801C21.8653 14.1687 21.8322 14.1581 21.7988 14.1477C21.7863 14.1438 21.7739 14.1395 21.7614 14.1358C21.7155 14.1221 21.6694 14.1094 21.6227 14.0977C21.6106 14.0947 21.5982 14.0922 21.586 14.0893C21.5508 14.0809 21.5155 14.0728 21.4799 14.0657C21.4626 14.0622 21.4453 14.0591 21.4278 14.0559C21.3968 14.0501 21.3656 14.0446 21.3343 14.0397C21.3155 14.0368 21.2966 14.0341 21.2777 14.0315C21.2468 14.0272 21.2157 14.0235 21.1844 14.0201C21.1659 14.018 21.1473 14.0159 21.1285 14.0142C21.0949 14.0112 21.0609 14.0089 21.0269 14.0067C21.0107 14.0058 20.9945 14.0045 20.9782 14.0038C20.9281 14.0015 20.8777 14 20.8269 14H16.3136C14.5684 14 13.1484 15.3683 13.1484 17.0502V21.0139V23.0384V26.3256V33.7932V37.0341V38.5758C13.1484 39.3605 13.811 39.9991 14.6254 39.9991H22.5149C23.3293 39.9991 23.9919 39.3605 23.9919 38.5758V37.0341V32.6801H24.741C25.8478 32.6801 26.7482 31.8124 26.7482 30.7457V26.013C26.7482 24.9464 25.8478 24.0786 24.741 24.0786ZM23.9919 17.2999H24.4389C24.6446 17.2999 24.8121 17.4613 24.8121 17.6596V18.8774C24.8121 19.0757 24.6446 19.237 24.4389 19.237H23.9919V17.2999ZM22.9539 38.5758C22.9539 38.8089 22.757 38.9987 22.5149 38.9987H14.6254C14.3833 38.9987 14.1864 38.8089 14.1864 38.5758V37.5343H22.9539V38.5758ZM22.9539 36.5339H14.1864V34.2933H16.377C17.2526 34.2933 17.9648 33.6069 17.9648 32.7632V27.3554C17.9648 26.5117 17.2525 25.8254 16.377 25.8254H14.1864V23.5386H22.9539V36.5339ZM22.9539 19.7372V20.5137H14.1864V17.0501C14.1864 15.9197 15.1406 15.0003 16.3135 15.0003H20.8268C21.9997 15.0003 22.9539 15.9197 22.9539 17.0501V19.7372ZM25.7102 30.7458C25.7102 31.2607 25.2755 31.6798 24.7411 31.6798H23.992V25.0791H24.7411C25.2755 25.0791 25.7102 25.498 25.7102 26.0131V30.7458Z" fill="#2E2E2E"/>
<path d="M40.6543 33.0941H40.0983V32.8755V31.2014C40.0983 30.925 39.866 30.7012 39.5792 30.7012H29.8237C29.5371 30.7012 29.3047 30.925 29.3047 31.2014V32.8755V37.6442C29.3047 38.9434 30.4015 40.0004 31.7496 40.0004H37.6534C37.7286 40.0004 37.8028 39.9966 37.8762 39.9902C37.8818 39.9896 37.8874 39.9893 37.8929 39.9889C37.9629 39.9822 38.032 39.9724 38.1002 39.9601C38.1085 39.9586 38.1171 39.9574 38.1255 39.9558C38.1916 39.9432 38.2566 39.9279 38.3208 39.9103C38.3304 39.9077 38.3401 39.9052 38.3497 39.9024C38.4126 39.8843 38.4745 39.8638 38.5353 39.8411C38.5451 39.8374 38.5547 39.8337 38.5644 39.83C38.6248 39.8066 38.6841 39.781 38.742 39.753C38.7507 39.7488 38.7595 39.7444 38.7682 39.7401C38.8265 39.7112 38.8835 39.6803 38.939 39.6471C38.946 39.6429 38.9528 39.6386 38.9597 39.6343C39.0163 39.5997 39.0716 39.5633 39.1249 39.5244C39.1291 39.5213 39.1331 39.5181 39.1373 39.5149C39.1929 39.474 39.2468 39.4311 39.2984 39.3858C39.2985 39.3857 39.2986 39.3856 39.2987 39.3856C39.3513 39.3393 39.4016 39.2908 39.4499 39.2403C39.452 39.2381 39.4542 39.236 39.4563 39.2338C39.5025 39.1852 39.5463 39.1344 39.5882 39.0821C39.5922 39.0773 39.5962 39.0725 39.6001 39.0676C39.6404 39.0165 39.6784 38.9636 39.7143 38.9092C39.7187 38.9027 39.7232 38.8963 39.7274 38.8897C39.7624 38.8357 39.795 38.7803 39.8254 38.7237C39.8295 38.7162 39.8334 38.7088 39.8374 38.7012C39.8672 38.6442 39.8947 38.5861 39.9196 38.5266C39.9228 38.5191 39.9259 38.5115 39.9289 38.5038C39.9535 38.4436 39.9758 38.3821 39.9954 38.3195C39.9974 38.3127 39.9993 38.306 40.0013 38.2993C40.0207 38.235 40.0376 38.1696 40.0512 38.1032C40.0521 38.0988 40.0528 38.0943 40.0537 38.0899C40.0676 38.0206 40.0785 37.9504 40.0859 37.8791H40.6543C41.3961 37.8791 41.9996 37.2974 41.9996 36.5825V34.3907C41.9997 33.6757 41.3962 33.0941 40.6543 33.0941ZM39.0602 37.6442C39.0602 38.3918 38.4291 39 37.6534 39H31.7496C30.9739 39 30.3427 38.3918 30.3427 37.6442V33.3757H39.0602V37.6442ZM40.9617 36.5825C40.9617 36.7458 40.8238 36.8787 40.6543 36.8787H40.0983V34.0945H40.6543C40.8238 34.0945 40.9617 34.2274 40.9617 34.3906V36.5825Z" fill="#2E2E2E"/>
<path d="M11.519 33.8145C11.2323 33.8145 11 34.0383 11 34.3146V34.7217C11 34.9981 11.2323 35.2219 11.519 35.2219C11.8057 35.2219 12.038 34.9981 12.038 34.7217V34.3146C12.038 34.0384 11.8057 33.8145 11.519 33.8145Z" fill="#2E2E2E"/>
<path d="M11.519 27.1094C11.2323 27.1094 11 27.3332 11 27.6096V32.4613C11 32.7377 11.2323 32.9615 11.519 32.9615C11.8057 32.9615 12.038 32.7377 12.038 32.4613V27.6096C12.038 27.3333 11.8057 27.1094 11.519 27.1094Z" fill="#2E2E2E"/>
<path d="M11.519 22.2578C11.2323 22.2578 11 22.4817 11 22.758V25.484C11 25.7603 11.2323 25.9842 11.519 25.9842C11.8057 25.9842 12.038 25.7603 12.038 25.484V22.758C12.038 22.4817 11.8057 22.2578 11.519 22.2578Z" fill="#2E2E2E"/>
<path d="M27.9057 37.0078C27.619 37.0078 27.3867 37.2317 27.3867 37.508V37.9152C27.3867 38.1915 27.619 38.4154 27.9057 38.4154C28.1925 38.4154 28.4248 38.1915 28.4248 37.9152V37.508C28.4248 37.2317 28.1924 37.0078 27.9057 37.0078Z" fill="#2E2E2E"/>
<path d="M27.9057 32.0566C27.619 32.0566 27.3867 32.2805 27.3867 32.5568V35.658C27.3867 35.9343 27.619 36.1582 27.9057 36.1582C28.1925 36.1582 28.4248 35.9343 28.4248 35.658V32.5568C28.4248 32.2805 28.1924 32.0566 27.9057 32.0566Z" fill="#2E2E2E"/>
</svg>
