<svg width="52" height="57" viewBox="0 0 52 57" fill="none" xmlns="http://www.w3.org/2000/svg">
<path d="M22.3004 0.978343C24.5897 -0.326114 27.4103 -0.326114 29.6996 0.978343L48.3004 11.5771C50.5897 12.8816 52 15.2923 52 17.9012V39.0988C52 41.7077 50.5897 44.1184 48.3004 45.4229L29.6996 56.0217C27.4103 57.3261 24.5897 57.3261 22.3004 56.0217L3.69959 45.4229C1.41028 44.1184 0 41.7077 0 39.0988V17.9012C0 15.2923 1.41028 12.8816 3.6996 11.5771L22.3004 0.978343Z" fill="#FFC816"/>
<path d="M45.5042 27.8942C45.2614 27.0755 44.7559 26.3058 44.042 25.6684C41.6428 23.5256 38.0768 22.5436 35.3707 22.0938C34.0072 20.0723 31.4646 18 26.7697 18C23.6381 18 21.1407 18.9113 19.3465 20.7087C18.9147 21.1413 18.5487 21.6011 18.237 22.0702C18.0772 22.0929 17.9146 22.1175 17.7499 22.1439C17.4229 21.6458 17.0482 21.2356 16.6243 21.0091C16.1688 20.7658 15.6781 20.7366 15.2052 20.9248C14.2282 21.3141 13.3744 22.3595 12.7364 23.555C11.6734 24.0235 10.6638 24.6156 9.79666 25.3639C8.42658 26.5462 7.83522 27.9117 8.03931 29.4225C8.41856 32.2309 11.5977 34.9402 14.3912 36.2692C18.0635 38.0161 22.368 38.9415 26.8399 38.9455L26.8522 38.9453L26.872 38.9455L26.8765 38.9453C31.5426 38.9396 36.1458 37.8972 39.8398 36.0098C40.9068 35.4646 44.4669 33.4383 45.4785 30.253C45.7274 29.4693 45.7361 28.6757 45.5042 27.8942ZM18.5698 23.4954C18.5795 23.4763 18.5886 23.4573 18.5985 23.4382C18.6845 23.2711 18.7772 23.1039 18.8771 22.9376C18.891 22.9144 18.9058 22.8914 18.9199 22.8682C18.9559 22.8096 18.9923 22.751 19.0301 22.6928C19.0495 22.6628 19.0697 22.633 19.0897 22.6031C19.1239 22.5516 19.1588 22.5003 19.1945 22.4491C19.217 22.4171 19.2398 22.3852 19.2628 22.3533C19.2983 22.3042 19.3345 22.2554 19.3713 22.2066C19.3956 22.1746 19.42 22.1427 19.4448 22.1108C19.4832 22.0618 19.5225 22.0132 19.5623 21.9647C19.5872 21.9343 19.6118 21.9039 19.6373 21.8737C19.6818 21.8214 19.7276 21.7696 19.7738 21.7179C19.7964 21.6926 19.8182 21.6671 19.8413 21.6421C19.9112 21.5659 19.9829 21.4904 20.0572 21.416C21.6561 19.8141 23.9145 19.0019 26.7697 19.0019C30.6295 19.0019 33.3838 20.461 34.9562 23.339C35.0014 23.4218 35.0445 23.5048 35.0866 23.5878C35.0948 23.604 35.1031 23.6201 35.1112 23.6362C35.1512 23.7163 35.1898 23.7963 35.2269 23.8761C35.2336 23.8905 35.2401 23.905 35.2467 23.9194C35.2831 23.9986 35.3183 24.0776 35.3519 24.1563C35.3538 24.1607 35.3558 24.1651 35.3577 24.1696C35.3928 24.2519 35.4259 24.3339 35.4582 24.4155C35.4638 24.4296 35.4693 24.4439 35.4749 24.4581C35.5063 24.5387 35.5364 24.6188 35.5651 24.6982C35.5683 24.7071 35.5714 24.7159 35.5746 24.7247C35.6033 24.8049 35.6308 24.8845 35.6568 24.9633C35.658 24.9667 35.6591 24.9701 35.6603 24.9735C35.6871 25.055 35.7125 25.1355 35.7367 25.2153C35.7395 25.2244 35.7422 25.2335 35.745 25.2426C35.7691 25.3229 35.7923 25.4022 35.8139 25.4804C35.7032 25.5434 35.5921 25.6048 35.4808 25.6652C35.4701 25.671 35.4595 25.677 35.4488 25.6828C35.3451 25.7389 35.241 25.7933 35.1368 25.8472C35.1182 25.8568 35.0996 25.8668 35.0809 25.8764C34.9822 25.927 34.8831 25.9761 34.7837 26.0248C34.7595 26.0366 34.7354 26.0489 34.7111 26.0606C34.6156 26.1068 34.5199 26.1517 34.4241 26.196C34.3957 26.2092 34.3674 26.2226 34.339 26.2356C34.2466 26.2778 34.1539 26.3187 34.0611 26.3593C34.0287 26.3733 33.9966 26.3878 33.9642 26.4016C33.8741 26.4403 33.7838 26.4778 33.6933 26.5148C33.6581 26.5293 33.623 26.5441 33.5877 26.5582C33.4993 26.5938 33.4107 26.6282 33.322 26.6623C33.2843 26.6768 33.2467 26.6915 33.2089 26.7056C33.1221 26.7383 33.035 26.7698 32.9479 26.8011C32.9078 26.8154 32.8679 26.83 32.8279 26.8439C32.7426 26.8737 32.6569 26.9026 32.5713 26.9311C32.529 26.9451 32.4868 26.9593 32.4444 26.973C32.3605 27.0001 32.2763 27.0265 32.192 27.0523C32.1476 27.066 32.1033 27.0796 32.0589 27.0928C31.976 27.1176 31.8931 27.1414 31.8099 27.1648C31.7638 27.1778 31.7177 27.1908 31.6715 27.2034C31.5896 27.2257 31.5075 27.2473 31.4253 27.2684C31.3775 27.2806 31.3296 27.2928 31.2817 27.3047C31.2007 27.3247 31.1196 27.344 31.0386 27.3628C30.9891 27.3743 30.9395 27.3856 30.8899 27.3966C30.8099 27.4144 30.7298 27.4316 30.6496 27.4483C30.5984 27.4589 30.5472 27.4692 30.496 27.4794C30.4169 27.495 30.3377 27.5101 30.2584 27.5246C30.2055 27.5343 30.1527 27.5436 30.0998 27.5528C30.0217 27.5664 29.9435 27.5794 29.8652 27.5918C29.8107 27.6005 29.756 27.6088 29.7013 27.617C29.6242 27.6284 29.547 27.6396 29.4697 27.65C29.4136 27.6576 29.3574 27.6646 29.3013 27.6717C29.2249 27.6812 29.1483 27.6905 29.0717 27.6991C29.0143 27.7054 28.9566 27.7113 28.899 27.7171C28.8234 27.7248 28.7479 27.7322 28.6721 27.7388C28.613 27.744 28.5539 27.7486 28.4946 27.7532C28.4199 27.759 28.3451 27.7647 28.2702 27.7696C28.2096 27.7735 28.1488 27.7767 28.0881 27.78C28.0143 27.784 27.9405 27.7879 27.8665 27.7909C27.8043 27.7935 27.7421 27.7954 27.6799 27.7972C27.6758 27.7974 27.6719 27.7975 27.668 27.7976C27.6736 27.6912 27.6782 27.5851 27.6807 27.4799C27.7039 26.4539 27.5853 25.0396 26.8875 24.1296C26.5271 23.6593 26.0309 23.4045 25.4524 23.3927C25.4386 23.3924 25.4248 23.3924 25.411 23.3924C23.8344 23.3924 21.914 25.2032 20.9543 26.2267C20.8994 26.2041 20.8433 26.1837 20.785 26.1678L19.6998 25.8728C19.5463 25.831 19.3918 25.8175 19.2411 25.8268C19.0898 25.2501 18.8458 24.4294 18.5089 23.6178C18.5292 23.5773 18.5491 23.5363 18.5698 23.4954ZM36.0059 26.5211L36.1598 27.5777C35.6202 28.0414 33.7053 29.4366 29.7413 29.9237C29.5589 29.9462 29.3734 29.9657 29.1862 29.9838C29.1587 29.9865 29.1314 29.9893 29.1038 29.9918C28.9198 30.0088 28.7338 30.0238 28.5457 30.0366C28.5214 30.0383 28.497 30.0398 28.4726 30.0414C28.0924 30.0663 27.7039 30.0822 27.3098 30.09C27.4199 29.6747 27.5079 29.2348 27.5711 28.789C30.1192 28.7228 33.0335 28.1405 36.0059 26.5211ZM22.8377 27.8661C22.8129 27.8699 22.7882 27.8716 22.764 27.8716C22.5193 27.8716 22.3049 27.6925 22.2683 27.4435C22.228 27.1698 22.4174 26.9152 22.6915 26.8749L24.0539 26.6745C24.3281 26.6333 24.5829 26.8235 24.6233 27.0971C24.6636 27.3708 24.4742 27.6254 24.2001 27.6657L22.8377 27.8661ZM24.055 29.9214C23.9567 30.0551 23.8044 30.126 23.6501 30.126C23.547 30.126 23.4432 30.0945 23.3538 30.0289L22.1271 29.1299C21.9037 28.9662 21.8555 28.6525 22.0194 28.4296C22.1833 28.2065 22.4974 28.1583 22.7207 28.322L23.9474 29.2211C24.1707 29.3847 24.2189 29.6984 24.055 29.9214ZM20.8156 27.6473L20.4464 29.0027C20.4172 29.1093 20.3476 29.1987 20.2501 29.2544C20.1526 29.31 20.04 29.3247 19.9333 29.2959C19.9333 29.2959 19.9333 29.2959 19.9332 29.2959L18.8479 29.0009C18.7412 28.9718 18.6516 28.9023 18.5959 28.8049C18.54 28.7075 18.5254 28.5952 18.5544 28.4886L18.9236 27.1334C18.9741 26.9477 19.1432 26.8255 19.3271 26.8255C19.3632 26.8255 19.4001 26.8302 19.4367 26.84L20.522 27.1351C20.6287 27.1641 20.7182 27.2336 20.774 27.331C20.8299 27.4283 20.8446 27.5406 20.8156 27.6473ZM16.1034 25.3128C16.2717 25.093 16.5867 25.0512 16.8066 25.2192L17.6594 25.8705C17.8795 26.0386 17.9215 26.3529 17.7532 26.5727C17.6544 26.7016 17.5052 26.7693 17.3543 26.7693C17.248 26.7693 17.141 26.7358 17.05 26.6663L16.1972 26.015C15.9771 25.847 15.9351 25.5326 16.1034 25.3128ZM15.7741 27.1551L16.9613 27.0549C17.2357 27.0329 17.48 27.2362 17.5034 27.5119C17.5267 27.7877 17.3219 28.0299 17.0458 28.0533L15.8585 28.1535C15.8442 28.1547 15.8299 28.1552 15.8157 28.1552C15.5578 28.1552 15.3386 27.9578 15.3164 27.6964C15.2931 27.4207 15.4979 27.1784 15.7741 27.1551ZM44.5223 29.95C43.8117 32.1872 41.4016 34.0863 39.3829 35.1179C35.8242 36.9359 31.378 37.9394 26.8633 37.9432L26.8406 37.9435C22.5171 37.9396 18.3614 37.0479 14.8229 35.3647C11.337 33.7062 9.27204 31.0527 9.03377 29.2887C8.87792 28.1344 9.35542 27.0691 10.4529 26.1221C10.7837 25.8365 11.3178 25.4328 12.0895 25.0044C11.8492 25.6592 11.6795 26.3006 11.5952 26.8529C11.4122 28.0515 11.5911 28.9087 12.1126 29.3317C12.6183 29.7419 13.6221 29.8714 14.6881 29.8714C15.2726 29.8714 15.8756 29.8325 16.4253 29.7796L13.1133 32.2982C12.8914 32.4668 12.7543 32.723 12.737 33.001C12.7198 33.279 12.8245 33.5501 13.0238 33.7448L14.3604 35.0492C14.5401 35.2245 14.7811 35.3218 15.0306 35.3218C15.0537 35.3218 15.0769 35.3211 15.1001 35.3193C15.3739 35.2994 15.6264 35.1631 15.793 34.945L18.9317 30.8335L19.5481 35.9329C19.582 36.2136 19.7351 36.4666 19.9682 36.6271C20.1347 36.7418 20.3309 36.8018 20.5296 36.8018C20.609 36.8018 20.6888 36.7921 20.7671 36.7727L22.5153 36.3406C22.7943 36.2715 23.029 36.085 23.159 35.8288C23.2891 35.5728 23.3011 35.2737 23.1922 35.008L21.7842 31.5756C22.7934 32.2906 24.0041 32.9606 24.9984 32.9606C25.0956 32.9606 25.1911 32.9541 25.2837 32.9407C25.9396 32.8459 26.5223 32.2168 26.969 31.1217C26.9722 31.1139 26.9752 31.1055 26.9784 31.0978C27.0384 31.0974 27.0989 31.0973 27.1583 31.0966C27.1977 31.0961 27.2362 31.0951 27.2752 31.0946C27.3494 31.0933 27.4238 31.0923 27.497 31.0905C27.5398 31.0894 27.5819 31.0879 27.6244 31.0866C27.6926 31.0847 27.7612 31.0829 27.8286 31.0805C27.8734 31.0788 27.9172 31.0766 27.9617 31.0748C28.0257 31.0722 28.0902 31.0697 28.1534 31.0667C28.1983 31.0645 28.2423 31.0618 28.2868 31.0593C28.3484 31.056 28.4105 31.0529 28.4714 31.0491C28.5159 31.0464 28.5594 31.0432 28.6034 31.0402C28.6635 31.0362 28.7237 31.0324 28.7829 31.0281C28.8265 31.0249 28.8691 31.0212 28.9123 31.0177C28.9708 31.0131 29.0296 31.0086 29.0874 31.0036C29.1302 30.9999 29.1722 30.9958 29.2146 30.9918C29.2719 30.9866 29.3293 30.9815 29.3858 30.9759C29.4272 30.9717 29.4677 30.9673 29.5086 30.9629C29.565 30.957 29.6217 30.9512 29.6773 30.9449C29.7175 30.9404 29.7568 30.9355 29.7965 30.9309C29.852 30.9243 29.9077 30.9178 29.9624 30.911C30.0013 30.9061 30.0395 30.9009 30.0781 30.8958C30.1325 30.8886 30.1874 30.8816 30.2411 30.8741C30.278 30.869 30.3142 30.8635 30.3508 30.8583C30.4054 30.8504 30.4602 30.8426 30.514 30.8344C30.5492 30.8291 30.5834 30.8234 30.6182 30.8179C30.6722 30.8094 30.7262 30.8009 30.7793 30.7921C30.814 30.7863 30.8479 30.7803 30.8821 30.7745C30.9347 30.7655 30.9874 30.7566 31.0392 30.7472C31.072 30.7414 31.1042 30.7352 31.1367 30.7292C31.1889 30.7195 31.2412 30.7099 31.2927 30.6999C31.3243 30.6938 31.3552 30.6875 31.3866 30.6812C31.4377 30.6711 31.4892 30.6609 31.5396 30.6504C31.5705 30.644 31.6008 30.6374 31.6314 30.6308C31.6814 30.6202 31.7313 30.6096 31.7804 30.5987C31.8101 30.5922 31.8391 30.5853 31.8686 30.5787C31.9179 30.5675 31.9672 30.5563 32.0157 30.5448C32.0437 30.5382 32.0712 30.5315 32.0989 30.5247C32.1476 30.513 32.1964 30.5013 32.2442 30.4892C32.2714 30.4824 32.2981 30.4754 32.3249 30.4686C32.3727 30.4564 32.4204 30.4442 32.4673 30.4318C32.4928 30.425 32.5177 30.4181 32.5429 30.4114C32.5906 30.3985 32.638 30.3856 32.6847 30.3726C32.7086 30.366 32.7322 30.3591 32.7558 30.3524C32.8027 30.339 32.8494 30.3257 32.8954 30.3121C32.9186 30.3053 32.9414 30.2983 32.9645 30.2914C33.01 30.2778 33.0554 30.2642 33.1001 30.2503C33.1226 30.2433 33.1448 30.2363 33.1671 30.2292C33.2115 30.2153 33.2557 30.2013 33.2993 30.1871C33.3208 30.1801 33.3421 30.1731 33.3634 30.1659C33.4067 30.1517 33.45 30.1373 33.4924 30.1229C33.5132 30.1158 33.5336 30.1087 33.5541 30.1016C33.5966 30.0869 33.639 30.0722 33.6805 30.0574C33.6999 30.0505 33.719 30.0435 33.7381 30.0366C33.78 30.0214 33.8217 30.0064 33.8627 29.9912C33.881 29.9843 33.899 29.9774 33.9171 29.9706C33.9583 29.9552 33.9991 29.9396 34.0394 29.9241C34.0566 29.9174 34.0735 29.9106 34.0906 29.9039C34.1308 29.8881 34.1709 29.8723 34.2103 29.8564C34.2265 29.8498 34.2425 29.8432 34.2584 29.8367C34.2979 29.8205 34.3372 29.8043 34.3758 29.7882C34.391 29.7817 34.406 29.7753 34.4212 29.7689C34.4597 29.7525 34.4978 29.7362 34.5353 29.7198C34.5501 29.7134 34.5646 29.7069 34.5791 29.7004C34.6164 29.684 34.6535 29.6676 34.6898 29.651C34.7037 29.6447 34.7173 29.6385 34.7311 29.6321C34.7674 29.6155 34.8034 29.5989 34.8387 29.5823C34.852 29.576 34.8652 29.5697 34.8784 29.5634C34.9134 29.5467 34.9481 29.5302 34.9822 29.5136C34.9949 29.5073 35.0074 29.5012 35.02 29.4949C35.0541 29.4782 35.0878 29.4615 35.1209 29.4447C35.1327 29.4388 35.1442 29.4329 35.1558 29.427C35.1891 29.41 35.2221 29.393 35.2545 29.3761C35.2653 29.3705 35.2758 29.3649 35.2865 29.3593C35.319 29.3422 35.351 29.3251 35.3825 29.3081C35.3928 29.3026 35.4028 29.2971 35.413 29.2916C35.4441 29.2746 35.4747 29.2578 35.5049 29.241C35.5149 29.2354 35.5248 29.2298 35.5347 29.2242C35.5645 29.2073 35.594 29.1907 35.6229 29.174C35.6322 29.1687 35.6413 29.1634 35.6504 29.158C35.6794 29.1413 35.7077 29.1246 35.7356 29.108C35.7443 29.1029 35.7529 29.0977 35.7616 29.0925C35.7894 29.0759 35.8168 29.0593 35.8436 29.0429C35.8516 29.038 35.8596 29.0331 35.8675 29.0282C35.8943 29.0116 35.9207 28.9952 35.9465 28.9788C35.9541 28.9741 35.9615 28.9694 35.9689 28.9647C35.9946 28.9484 36.0197 28.9322 36.0444 28.9162C36.0515 28.9116 36.0585 28.907 36.0654 28.9024C36.0901 28.8863 36.1143 28.8702 36.1381 28.8544C36.1444 28.8502 36.1507 28.846 36.1569 28.8417C36.1805 28.8258 36.2035 28.8101 36.2261 28.7946C36.2323 28.7903 36.2383 28.7861 36.2444 28.7819C36.2667 28.7665 36.2885 28.7512 36.3098 28.7361C36.3155 28.732 36.3211 28.7281 36.3267 28.7241C36.348 28.7089 36.3687 28.694 36.389 28.6792C36.3942 28.6755 36.3994 28.6717 36.4044 28.668C36.4246 28.6533 36.444 28.6387 36.4631 28.6244C36.468 28.6208 36.4729 28.6171 36.4778 28.6135C36.4966 28.5993 36.5149 28.5853 36.5328 28.5716C36.5374 28.568 36.5419 28.5645 36.5464 28.561C36.5643 28.5472 36.5816 28.5338 36.5984 28.5204C36.6025 28.5172 36.6065 28.514 36.6105 28.5108C36.6272 28.4975 36.6434 28.4845 36.6592 28.4717C36.6629 28.4687 36.6666 28.4657 36.6702 28.4628C36.6856 28.4501 36.7005 28.4379 36.7151 28.4258C36.7188 28.4228 36.7225 28.4196 36.7261 28.4166C36.7405 28.4045 36.7545 28.3928 36.7679 28.3812C36.7707 28.3787 36.7736 28.3764 36.7763 28.3739C36.7899 28.3623 36.8029 28.351 36.8155 28.34C36.8182 28.3377 36.8208 28.3353 36.8235 28.3329C36.8355 28.3223 36.847 28.3121 36.8581 28.3021C36.861 28.2996 36.8638 28.2971 36.8665 28.2946C36.8772 28.2849 36.8872 28.2757 36.897 28.2668C36.8997 28.2642 36.9024 28.2618 36.905 28.2593C36.9144 28.2506 36.9232 28.2423 36.9316 28.2344C36.9343 28.2319 36.937 28.2293 36.9396 28.2268C36.9475 28.2193 36.9549 28.2122 36.9621 28.2053C36.9647 28.2028 36.9674 28.2003 36.9699 28.1977C36.9768 28.191 36.9833 28.1847 36.9894 28.1785C36.9915 28.1765 36.9938 28.1743 36.9958 28.1723C37.0017 28.1663 37.0071 28.1609 37.0124 28.1555C37.0144 28.1536 37.0163 28.1516 37.0181 28.1498C37.0228 28.1451 37.0268 28.1408 37.0309 28.1366C37.0328 28.1346 37.0348 28.1326 37.0366 28.1308C37.0399 28.1273 37.0428 28.1243 37.0456 28.1212C37.0474 28.1192 37.0494 28.1172 37.051 28.1154C37.0531 28.1133 37.0548 28.1114 37.0565 28.1096C37.0584 28.1074 37.0604 28.1054 37.0618 28.1038C37.0619 28.1036 37.0621 28.1034 37.0623 28.1033C37.063 28.1025 37.0644 28.101 37.065 28.1004C37.0652 28.1001 37.0653 28.0999 37.0655 28.0997C37.0659 28.0992 37.0667 28.0983 37.0671 28.0979C37.0678 28.0971 37.0683 28.0962 37.0689 28.0955C37.087 28.075 37.1029 28.0529 37.1173 28.03C37.1197 28.0262 37.1222 28.0226 37.1246 28.0188C37.1382 27.9957 37.1497 27.9717 37.1595 27.9469C37.1595 27.9469 37.1595 27.9469 37.1595 27.9469C37.1595 27.9468 37.1595 27.9468 37.1595 27.9468C37.1615 27.9417 37.1633 27.9366 37.1651 27.9315C37.1741 27.906 37.1816 27.8801 37.1865 27.8535C37.187 27.8506 37.1871 27.8478 37.1877 27.8449C37.1877 27.8449 37.1877 27.8449 37.1877 27.8448C37.1919 27.8191 37.1939 27.7932 37.1941 27.767C37.1941 27.7641 37.1948 27.7614 37.1947 27.7585C37.1936 27.6636 37.1557 25.5072 36.0281 23.2291C38.4642 23.7082 41.3766 24.6324 43.3726 26.415C43.9474 26.9285 44.3517 27.5383 44.5415 28.1786C44.716 28.7649 44.7094 29.3608 44.5223 29.95Z" fill="#2E2E2E"/>
</svg>
