<svg width="52" height="57" viewBox="0 0 52 57" fill="none" xmlns="http://www.w3.org/2000/svg">
<path d="M22.3004 0.978343C24.5897 -0.326114 27.4103 -0.326114 29.6996 0.978343L48.3004 11.5771C50.5897 12.8816 52 15.2923 52 17.9012V39.0988C52 41.7077 50.5897 44.1184 48.3004 45.4229L29.6996 56.0217C27.4103 57.3261 24.5897 57.3261 22.3004 56.0217L3.69959 45.4229C1.41028 44.1184 0 41.7077 0 39.0988V17.9012C0 15.2923 1.41028 12.8816 3.6996 11.5771L22.3004 0.978343Z" fill="#FFC816"/>
<path d="M38.8238 37.2028L33.4727 16.9416C33.3235 16.3769 32.9632 15.904 32.4579 15.6101C31.9526 15.316 31.3626 15.2364 30.7975 15.3851L30.4343 15.4808L30.1796 14.4997C30.0039 13.8343 29.6805 13.3894 29.2185 13.1774C28.7651 12.9694 28.2331 13.0102 27.6378 13.2985L15.5123 19.1502C14.587 19.5983 14.1057 20.6442 14.368 21.6371L19.7197 41.9012H19.7198L19.8021 42.213C19.9512 42.7776 20.3117 43.2505 20.8168 43.5444C21.1559 43.7417 21.533 43.8426 21.9153 43.8426C22.1026 43.8426 22.2912 43.8183 22.4773 43.7694L37.2652 39.8745C38.4325 39.5669 39.1317 38.3684 38.8238 37.2028ZM28.075 14.2002C28.2305 14.125 28.4301 14.0499 28.6077 14.0499C28.6762 14.0499 28.7415 14.0611 28.7997 14.0879C29.0194 14.1886 29.1439 14.5064 29.2098 14.756L29.4642 15.7363L22.5879 17.5474L19.3991 18.3873L28.075 14.2002ZM37.0093 38.9055L22.2214 42.8004C21.9151 42.8812 21.5958 42.8378 21.322 42.6786C21.0483 42.5193 20.853 42.2631 20.7723 41.9572L20.69 41.6455L15.4212 21.696C15.3405 21.3901 15.3837 21.0711 15.5433 20.7977C15.7028 20.5244 15.9593 20.3294 16.2656 20.2488L31.0535 16.3538C31.1542 16.3273 31.2564 16.3141 31.358 16.3141C31.5649 16.3141 31.7692 16.3688 31.953 16.4757C32.2266 16.6349 32.4219 16.8912 32.5026 17.197L37.8536 37.4583C38.0204 38.0898 37.6416 38.7389 37.0093 38.9055Z" fill="#2E2E2E"/>
<path d="M25.9117 32.3468C26.3966 32.3468 26.8846 32.2819 27.365 32.1508C27.4626 32.1242 27.5585 32.0946 27.6533 32.0631C27.6691 32.0578 27.6846 32.0518 27.7003 32.0463C27.7816 32.0184 27.8621 31.9891 27.9413 31.9578C27.9503 31.9542 27.9593 31.9502 27.9683 31.9467C28.0551 31.9118 28.1405 31.8749 28.2246 31.836C28.2264 31.8351 28.2284 31.8342 28.2302 31.8333C28.4149 31.7477 28.593 31.6524 28.7644 31.5483C28.7647 31.548 28.7652 31.5477 28.7656 31.5475C29.9152 30.849 30.7541 29.755 31.1479 28.5007C31.155 28.4786 31.162 28.4567 31.1687 28.4345C31.1826 28.3885 31.1956 28.3422 31.2082 28.2958C31.2159 28.2671 31.2234 28.2385 31.2307 28.2098C31.242 28.1651 31.2533 28.1207 31.2635 28.0758C31.2714 28.0409 31.2783 28.0058 31.2856 27.9707C31.2998 27.9023 31.3126 27.8337 31.3242 27.7647C31.3309 27.7248 31.3377 27.6849 31.3435 27.6447C31.349 27.6064 31.3539 27.5681 31.3585 27.5297C31.3637 27.4872 31.3684 27.4446 31.3725 27.402C31.376 27.3665 31.3797 27.3311 31.3826 27.2954C31.3878 27.229 31.3918 27.1625 31.3945 27.0957C31.3958 27.0663 31.3963 27.0369 31.397 27.0074C31.3986 26.9485 31.3993 26.8895 31.3989 26.8303C31.3987 26.7998 31.3979 26.7693 31.3972 26.7388C31.3959 26.685 31.3937 26.6311 31.3908 26.5771C31.3892 26.5489 31.388 26.5207 31.386 26.4924C31.3805 26.4128 31.3736 26.3329 31.3645 26.253C31.3635 26.2447 31.3621 26.2364 31.3611 26.2283C31.3523 26.1543 31.3418 26.0804 31.3299 26.0064C31.3257 25.9807 31.321 25.9551 31.3165 25.9295C31.306 25.8697 31.2944 25.8101 31.2818 25.7504C31.2767 25.7257 31.2716 25.7009 31.2661 25.6761C31.2477 25.5941 31.2278 25.512 31.2054 25.4301C31.1831 25.3483 31.1583 25.2677 31.1325 25.1879C31.1248 25.1641 31.1166 25.1406 31.1087 25.117C31.0888 25.0584 31.068 25.0003 31.0464 24.9427C31.0377 24.9195 31.0292 24.8963 31.0201 24.8733C30.9901 24.7967 30.9589 24.7208 30.9256 24.6462C30.9233 24.6407 30.9205 24.6354 30.918 24.63C30.8868 24.5606 30.8541 24.4924 30.8203 24.4247C30.8084 24.4011 30.7962 24.3777 30.7841 24.3543C30.7575 24.3031 30.7301 24.2525 30.702 24.2023C30.6892 24.1794 30.6766 24.1565 30.6634 24.1339C30.624 24.0657 30.5835 23.9982 30.5413 23.9322C30.534 23.9209 30.5263 23.91 30.519 23.8989C30.4828 23.8429 30.4455 23.7879 30.4073 23.7335C30.3905 23.7098 30.3736 23.6863 30.3564 23.663C30.3253 23.6201 30.2935 23.5778 30.2611 23.5359C30.2437 23.5132 30.2263 23.4905 30.2085 23.4681C30.1616 23.4096 30.1141 23.3518 30.0651 23.2954C30.0513 23.2796 30.037 23.2644 30.0231 23.2487C29.9842 23.2049 29.9448 23.1616 29.9046 23.1192C29.8829 23.0965 29.8611 23.0742 29.8392 23.0518C29.8045 23.0164 29.7692 22.9816 29.7336 22.9472C29.7116 22.926 29.6899 22.9047 29.6676 22.8839C29.6138 22.8336 29.5591 22.7841 29.5033 22.736C29.4633 22.6887 29.4155 22.6491 29.3618 22.6197C29.2994 22.5695 29.236 22.5208 29.1715 22.4734C29.1693 22.4718 29.1669 22.4701 29.1648 22.4685C29.1015 22.4221 29.0373 22.3772 28.9721 22.3336C28.9689 22.3314 28.9657 22.3293 28.9625 22.3271C28.8974 22.2837 28.8314 22.2417 28.7645 22.2012C28.7618 22.1995 28.7592 22.1979 28.7565 22.1963C28.6884 22.1551 28.6194 22.1154 28.5497 22.0772C28.5494 22.0771 28.5491 22.0769 28.5488 22.0767C27.691 21.6077 26.7085 21.366 25.6988 21.4068C25.6988 21.4068 25.6987 21.4068 25.6986 21.4068C25.6944 21.407 25.6903 21.4072 25.6861 21.4072C25.5818 21.4118 25.4771 21.4189 25.3721 21.4296C25.3709 21.4296 25.3697 21.4297 25.3685 21.4299C25.2762 21.4392 25.1839 21.4509 25.0914 21.4652C25.0828 21.4665 25.0743 21.4674 25.0656 21.4688C24.9811 21.4823 24.8967 21.498 24.8122 21.5154C24.797 21.5186 24.7818 21.5209 24.7667 21.5242C24.6694 21.5451 24.5725 21.5684 24.4754 21.5949C24.3958 21.6166 24.3174 21.6407 24.2397 21.6657C24.2153 21.6735 24.1911 21.6816 24.1669 21.6897C24.1098 21.709 24.0534 21.7291 23.9974 21.7501C23.9596 21.7642 23.922 21.7788 23.8846 21.7938C23.8365 21.8131 23.7885 21.8327 23.7411 21.8533C23.6982 21.8718 23.6557 21.8912 23.6134 21.9107C23.5932 21.9202 23.5732 21.9298 23.553 21.9395C23.3973 22.0139 23.2465 22.095 23.1003 22.1826C23.0975 22.1841 23.0951 22.1859 23.0924 22.1874C23.0151 22.234 22.9392 22.2823 22.8648 22.3323C22.8636 22.3331 22.8625 22.3339 22.8613 22.3346C22.343 22.6836 21.8945 23.1154 21.529 23.6066C21.5277 23.6083 21.5264 23.61 21.5251 23.6117C21.2028 24.0458 20.9456 24.5254 20.7628 25.0347C20.7581 25.0465 20.7533 25.0581 20.7497 25.0703C20.7497 25.0704 20.7496 25.0704 20.7496 25.0705C20.7316 25.122 20.7147 25.1741 20.6982 25.2262C20.6917 25.2463 20.6853 25.2666 20.6791 25.287C20.6637 25.3374 20.6489 25.3879 20.635 25.4388C20.6295 25.4588 20.6244 25.4789 20.6191 25.4991C20.5769 25.6606 20.5419 25.8243 20.5146 25.9899C20.5096 26.0201 20.5045 26.0503 20.5001 26.0806C20.4935 26.1252 20.4874 26.1698 20.4819 26.2148C20.4775 26.2499 20.4739 26.2851 20.4703 26.3204C20.466 26.3622 20.4613 26.404 20.458 26.446C20.4524 26.5168 20.448 26.5879 20.4451 26.6592C20.4438 26.6936 20.4436 26.7281 20.4429 26.7626C20.4419 26.8095 20.4413 26.8564 20.4414 26.9034C20.4417 26.9385 20.4422 26.9736 20.4431 27.0088C20.4443 27.0589 20.4464 27.1091 20.449 27.1593C20.4506 27.1899 20.4519 27.2203 20.454 27.251C20.4594 27.3295 20.4663 27.4081 20.4752 27.4869C20.4772 27.5044 20.48 27.522 20.4822 27.5394C20.4902 27.6046 20.4993 27.6698 20.5098 27.7351C20.5142 27.7625 20.5191 27.79 20.5239 27.8174C20.5342 27.8759 20.5455 27.9343 20.5578 27.9928C20.5631 28.0183 20.5683 28.0437 20.5739 28.069C20.5924 28.1512 20.6123 28.2334 20.6347 28.3154C21.0205 29.7252 21.9331 30.9005 23.2042 31.6249C24.0433 32.103 24.9717 32.3468 25.9117 32.3468ZM24.508 31.1155C24.4463 31.0949 24.3851 31.0724 24.3241 31.049C24.3044 31.0413 24.2848 31.0333 24.2651 31.0255C24.2221 31.0084 24.1794 30.9904 24.1368 30.9719C24.1162 30.9629 24.0956 30.9541 24.0751 30.9447C24.0234 30.9213 23.972 30.8968 23.921 30.8712C23.9124 30.8669 23.9037 30.8631 23.8951 30.8587L24.2465 30.7628C24.3309 30.8821 24.4178 30.9999 24.5082 31.1156C24.508 31.1155 24.508 31.1155 24.508 31.1155ZM23.9407 27.9326L25.5687 27.4883L26.0463 29.2329L24.6845 29.6046C24.3751 29.08 24.1266 28.5224 23.9407 27.9326ZM26.6085 31.2888C26.5206 31.3027 26.4327 31.3135 26.3446 31.3221C26.3361 31.3229 26.3277 31.3237 26.3193 31.3245C26.2307 31.3326 26.1422 31.3384 26.0538 31.3413C25.7731 31.0676 25.5162 30.7801 25.2817 30.4802L26.3108 30.1993L26.609 31.2888C26.6089 31.2888 26.6087 31.2888 26.6085 31.2888ZM27.8632 30.8994C27.8632 30.8994 27.8632 30.8994 27.8631 30.8994C27.7694 30.9443 27.674 30.9861 27.5768 31.0246L27.2786 29.9352L28.116 29.7066C28.0601 30.0912 27.9778 30.4886 27.8632 30.8994ZM28.2051 28.6436L27.0142 28.9686L26.5366 27.2241L28.0383 26.8141C28.1557 27.3764 28.2191 27.9873 28.2051 28.6436ZM29.0801 30.0392C29.1147 29.8294 29.1412 29.6236 29.1617 29.4212L29.6913 29.2766C29.5136 29.5547 29.3093 29.8104 29.0801 30.0392ZM30.3422 26.1852C30.3546 26.2635 30.3647 26.3419 30.3729 26.4203C30.3734 26.4252 30.3737 26.4301 30.3743 26.435C30.3818 26.5095 30.3874 26.5838 30.3911 26.6582C30.3914 26.6642 30.3917 26.6702 30.3919 26.6762C30.3954 26.7508 30.397 26.8253 30.3966 26.8998C30.3966 26.9042 30.3966 26.9087 30.3966 26.9132C30.396 26.9914 30.3934 27.0694 30.3888 27.1472C30.3888 27.1472 30.3888 27.1473 30.3888 27.1474C30.3693 27.4667 30.3153 27.7829 30.2272 28.0917L29.2107 28.3691C29.2044 27.7146 29.1298 27.1065 29.0102 26.5489L30.3422 26.1852ZM28.9824 23.6156C29.0992 23.7247 29.2102 23.8402 29.3152 23.9619C29.3161 23.963 29.3169 23.9639 29.3178 23.965C29.4749 24.1475 29.6181 24.3438 29.7453 24.5527C29.7454 24.5529 29.7457 24.5532 29.7458 24.5535C29.8733 24.763 29.9845 24.9851 30.0776 25.2187C30.0776 25.2187 30.0776 25.2187 30.0776 25.2187L28.7465 25.5821C28.562 25.0281 28.3405 24.5395 28.1156 24.1225C28.0723 24.0424 28.0285 23.9647 27.9843 23.8882L28.9824 23.6156ZM27.0574 22.5516C27.1296 22.5707 27.2012 22.5916 27.2722 22.6143C27.2743 22.615 27.2766 22.6157 27.2788 22.6163C27.4943 22.6854 27.704 22.7703 27.906 22.8705C27.9061 22.8705 27.9063 22.8705 27.9063 22.8706L27.4104 23.006C27.29 22.8411 27.1715 22.6897 27.0574 22.5516ZM27.7722 25.848L26.272 26.2575L25.7875 24.4877L26.9746 24.1636C27.2679 24.6401 27.5511 25.2032 27.7722 25.848ZM25.2325 22.4583C25.339 22.4417 25.4453 22.4287 25.5515 22.4198C25.553 22.4197 25.5544 22.4194 25.556 22.4194C25.7231 22.5718 26.0229 22.8659 26.3627 23.2919L25.5232 23.5211L25.2322 22.4584C25.2323 22.4584 25.2324 22.4583 25.2325 22.4583ZM23.7619 22.9582C23.7619 22.9581 23.7621 22.958 23.7622 22.958C23.8392 22.9157 23.9178 22.8757 23.9977 22.8377C24.0042 22.8347 24.0106 22.8316 24.0171 22.8285C24.0977 22.7907 24.1798 22.7547 24.2634 22.7215C24.2636 22.7215 24.2637 22.7213 24.264 22.7213L24.5552 23.7854L23.5815 24.0511C23.6346 23.5522 23.7122 23.1702 23.7619 22.9582ZM24.8198 24.7518L25.3042 26.5216L23.6954 26.9608C23.623 26.5835 23.5722 26.1954 23.5455 25.7955C23.5296 25.5564 23.5234 25.3259 23.5241 25.1056L24.8198 24.7518ZM22.5884 23.8924C22.573 24.0313 22.5593 24.1783 22.5485 24.3332L22.172 24.436C22.2965 24.2447 22.4358 24.0632 22.5884 23.8924ZM21.4986 27.5603C21.4861 27.4803 21.476 27.4004 21.4679 27.3206C21.467 27.312 21.4664 27.3035 21.4656 27.2949C21.4588 27.2234 21.4537 27.152 21.4504 27.0807C21.4498 27.0683 21.4493 27.0558 21.4489 27.0433C21.4463 26.9756 21.4453 26.9083 21.4457 26.8409C21.4458 26.8268 21.4459 26.8127 21.4462 26.7988C21.4473 26.7323 21.45 26.666 21.4541 26.5999C21.4549 26.5864 21.4556 26.5728 21.4565 26.5591C21.4613 26.4906 21.4679 26.4224 21.476 26.3544C21.4772 26.3443 21.478 26.3341 21.4794 26.324C21.5091 26.0859 21.5578 25.8519 21.6246 25.6239L22.5232 25.3786C22.5265 25.5232 22.5323 25.671 22.5418 25.8224C22.572 26.3017 22.6342 26.7697 22.7266 27.225L21.4987 27.5603C21.4987 27.5604 21.4987 27.5603 21.4986 27.5603ZM22.0869 29.1811C22.0847 29.1775 22.0825 29.1738 22.0804 29.1701C22.042 29.1062 22.0054 29.0411 21.9703 28.975C21.9676 28.9698 21.9647 28.9644 21.9619 28.9591C21.9272 28.8932 21.8941 28.8261 21.8626 28.7583C21.8606 28.7538 21.8585 28.7495 21.8565 28.7451C21.8236 28.6734 21.7923 28.6008 21.763 28.527L22.9777 28.1954C23.1618 28.7823 23.4024 29.3427 23.6939 29.8748L22.8332 30.1098C22.5432 29.8348 22.2926 29.5228 22.0869 29.1811Z" fill="#2E2E2E"/>
<path d="M31.5013 33.7605L24.4718 35.612C23.483 35.8725 22.8906 36.8878 23.1513 37.8753C23.2777 38.3536 23.5831 38.7543 24.011 39.0033C24.2983 39.1705 24.6177 39.2559 24.9415 39.2559C25.1002 39.2559 25.2601 39.2353 25.4176 39.1939L32.447 37.3425C32.9261 37.2163 33.3273 36.9113 33.5766 36.4839C33.826 36.0565 33.8939 35.5576 33.7675 35.0792C33.5068 34.0917 32.4901 33.5005 31.5013 33.7605Z" fill="#2E2E2E"/>
<path d="M15.6862 31.0053L13.9877 24.4114C13.9186 24.1434 13.6445 23.9821 13.3767 24.0511C13.1085 24.1201 12.9469 24.3931 13.0159 24.6612L14.7145 31.2552C14.7727 31.4811 14.9765 31.6313 15.1999 31.6313C15.2414 31.6313 15.2835 31.6262 15.3254 31.6155C15.5937 31.5465 15.7552 31.2734 15.6862 31.0053Z" fill="#2E2E2E"/>
<path d="M16.1283 34.7215C16.3966 34.6526 16.5582 34.3795 16.4892 34.1115L16.2142 33.0442C16.145 32.7762 15.8715 32.615 15.6033 32.6839C15.3351 32.7528 15.1735 33.0259 15.2425 33.294L15.5174 34.3612C15.5757 34.5873 15.7795 34.7374 16.0029 34.7374C16.0443 34.7374 16.0863 34.7323 16.1283 34.7215Z" fill="#2E2E2E"/>
<path d="M16.9876 36.052C16.9185 35.784 16.6446 35.6229 16.3767 35.6916C16.1084 35.7607 15.947 36.0337 16.0159 36.3018L17.0408 40.2802C17.099 40.5062 17.3028 40.6564 17.5262 40.6564C17.5677 40.6564 17.6097 40.6513 17.6517 40.6405C17.9199 40.5715 18.0815 40.2985 18.0125 40.0305L16.9876 36.052Z" fill="#2E2E2E"/>
<path d="M37.5753 28.6132L37.8565 29.6789C37.916 29.9036 38.119 30.0523 38.3413 30.0523C38.3835 30.0523 38.4266 30.0469 38.4695 30.0356C38.7374 29.9651 38.8974 29.691 38.8268 29.4235L38.5455 28.3578C38.4749 28.0903 38.2006 27.9306 37.9326 28.001C37.6646 28.0716 37.5046 28.3456 37.5753 28.6132Z" fill="#2E2E2E"/>
<path d="M37.0615 26.6791C37.1209 26.9038 37.3239 27.0525 37.5463 27.0525C37.5886 27.0525 37.6315 27.0471 37.6745 27.0358C37.9423 26.9653 38.1023 26.6912 38.0317 26.4237L36.9831 22.4514C36.9123 22.1839 36.6378 22.0245 36.3701 22.0947C36.1021 22.1652 35.9422 22.4393 36.0128 22.7067L37.0615 26.6791Z" fill="#2E2E2E"/>
</svg>
