<svg width="17" height="16" viewBox="0 0 17 16" fill="none" xmlns="http://www.w3.org/2000/svg">
<path d="M16.975 12.0933L16.203 15.2432C16.0945 15.6885 15.6787 16 15.1915 16C6.81393 15.9994 0 9.5872 0 1.70322C0 1.24512 0.331033 0.853266 0.804256 0.751708L4.15145 0.0251827C4.63892 -0.0811244 5.13701 0.156988 5.33957 0.591404L6.88432 3.98186C7.0649 4.38121 6.9431 4.8465 6.58613 5.12086L4.79831 6.47173C5.92665 8.63475 7.7955 10.3934 10.0947 11.4559L11.5584 9.77469C11.8469 9.43783 12.3451 9.32128 12.7695 9.49424L16.3723 10.9476C16.8057 11.1621 17.0879 11.6371 16.975 12.0933Z" fill="#FFC816"/>
</svg>
