<svg width="51" height="56" viewBox="0 0 51 56" fill="none" xmlns="http://www.w3.org/2000/svg">
<path d="M5.01164 7.06432C-3.30717 16.9854 -0.62368 35.8808 8.31439 41.2324C22.3098 49.6098 53.5208 26.1449 50.8373 14.0626C48.4635 3.33876 17.2938 -7.52917 5.01164 7.06432Z" fill="#FFC816"/>
<path d="M18.7778 29H15.25V15.4014L11.0386 16.7075V13.8389L18.3994 11.2021H18.7778V29ZM36.7769 21.6514C36.7769 24.109 36.2682 25.9889 35.251 27.291C34.2337 28.5931 32.7445 29.2441 30.7832 29.2441C28.8464 29.2441 27.3652 28.6053 26.3398 27.3276C25.3145 26.05 24.7896 24.2189 24.7651 21.8345V18.563C24.7651 16.0809 25.2778 14.1969 26.3032 12.9111C27.3368 11.6253 28.8219 10.9824 30.7588 10.9824C32.6956 10.9824 34.1768 11.6213 35.2021 12.8989C36.2275 14.1685 36.7524 15.9954 36.7769 18.3799V21.6514ZM33.249 18.0625C33.249 16.5895 33.0456 15.5194 32.6387 14.8521C32.2399 14.1766 31.6133 13.8389 30.7588 13.8389C29.9287 13.8389 29.3143 14.1603 28.9155 14.8032C28.5249 15.438 28.3174 16.4349 28.293 17.7939V22.1152C28.293 23.5638 28.4883 24.6421 28.8789 25.3501C29.2777 26.05 29.9124 26.3999 30.7832 26.3999C31.6458 26.3999 32.2684 26.0622 32.6509 25.3867C33.0334 24.7113 33.2327 23.6777 33.249 22.2861V18.0625Z" fill="white"/>
</svg>
