<svg width="51" height="56" viewBox="0 0 51 56" fill="none" xmlns="http://www.w3.org/2000/svg">
<path d="M5.01164 7.06432C-3.30717 16.9854 -0.62368 35.8808 8.31439 41.2324C22.3098 49.6098 53.5208 26.1449 50.8373 14.0626C48.4635 3.33876 17.2938 -7.52917 5.01164 7.06432Z" fill="#FFC816"/>
<path d="M24.4604 21.8955C23.5409 22.7988 22.4666 23.2505 21.2378 23.2505C19.6672 23.2505 18.4098 22.7134 17.4658 21.6392C16.5218 20.5568 16.0498 19.1001 16.0498 17.269C16.0498 16.1053 16.3021 15.0392 16.8066 14.0708C17.3193 13.0942 18.0314 12.3374 18.9429 11.8003C19.8543 11.255 20.8797 10.9824 22.019 10.9824C23.1909 10.9824 24.2326 11.2754 25.144 11.8613C26.0555 12.4473 26.7635 13.2896 27.2681 14.3882C27.7726 15.4868 28.029 16.7441 28.0371 18.1602V19.4663C28.0371 22.4285 27.3006 24.756 25.8276 26.4487C24.3547 28.1414 22.2673 29.0448 19.5654 29.1587L18.6987 29.1709V26.229L19.48 26.2168C22.548 26.0785 24.2082 24.638 24.4604 21.8955ZM22.1045 20.5527C22.6742 20.5527 23.1624 20.4062 23.5693 20.1133C23.9844 19.8203 24.2977 19.4663 24.5093 19.0513V17.5986C24.5093 16.4023 24.2814 15.4746 23.8257 14.8154C23.37 14.1562 22.7596 13.8267 21.9946 13.8267C21.2866 13.8267 20.7048 14.1522 20.249 14.8032C19.7933 15.4461 19.5654 16.2559 19.5654 17.2324C19.5654 18.2008 19.7852 18.9984 20.2246 19.625C20.6722 20.2435 21.2988 20.5527 22.1045 20.5527Z" fill="white"/>
</svg>
