<svg width="51" height="56" viewBox="0 0 51 56" fill="none" xmlns="http://www.w3.org/2000/svg">
<path d="M5.01164 7.06432C-3.30717 16.9854 -0.62368 35.8808 8.31439 41.2324C22.3098 49.6098 53.5208 26.1449 50.8373 14.0626C48.4635 3.33876 17.2938 -7.52917 5.01164 7.06432Z" fill="#FFC816"/>
<path d="M25.7788 11.0435V13.9487H25.437C23.842 13.9731 22.5562 14.3882 21.5796 15.1938C20.6112 15.9995 20.0293 17.1185 19.834 18.5508C20.778 17.5905 21.9702 17.1104 23.4106 17.1104C24.9569 17.1104 26.1857 17.6637 27.0972 18.7705C28.0086 19.8773 28.4644 21.334 28.4644 23.1406C28.4644 24.2962 28.2121 25.342 27.7075 26.2778C27.2111 27.2137 26.5031 27.9421 25.5835 28.4629C24.672 28.9837 23.6385 29.2441 22.4829 29.2441C20.6112 29.2441 19.0975 28.5931 17.9419 27.291C16.7944 25.9889 16.2207 24.2515 16.2207 22.0786V20.8091C16.2207 18.8804 16.5828 17.1795 17.3071 15.7065C18.0396 14.2254 19.0853 13.082 20.4443 12.2764C21.8115 11.4626 23.3944 11.0516 25.1929 11.0435H25.7788ZM22.3364 19.9424C21.7668 19.9424 21.25 20.0929 20.7861 20.394C20.3223 20.687 19.9805 21.0776 19.7607 21.5659V22.6401C19.7607 23.8201 19.9927 24.7438 20.4565 25.4111C20.9204 26.0703 21.5715 26.3999 22.4097 26.3999C23.1665 26.3999 23.7769 26.1029 24.2407 25.5088C24.7127 24.9066 24.9487 24.1294 24.9487 23.1772C24.9487 22.2088 24.7127 21.4276 24.2407 20.8335C23.7687 20.2394 23.134 19.9424 22.3364 19.9424Z" fill="white"/>
</svg>
