<svg width="51" height="56" viewBox="0 0 51 56" fill="none" xmlns="http://www.w3.org/2000/svg">
<path d="M5.01164 7.06432C-3.30717 16.9854 -0.62368 35.8808 8.31439 41.2324C22.3098 49.6098 53.5208 26.1449 50.8373 14.0626C48.4635 3.33876 17.2938 -7.52917 5.01164 7.06432Z" fill="#FFC816"/>
<path d="M28.3911 29H16.2085V26.583L21.958 20.4551C22.7474 19.5924 23.3293 18.8397 23.7036 18.1968C24.0861 17.5539 24.2773 16.9435 24.2773 16.3657C24.2773 15.5763 24.078 14.9578 23.6792 14.5103C23.2804 14.0545 22.7108 13.8267 21.9702 13.8267C21.1727 13.8267 20.542 14.1034 20.0781 14.6567C19.6224 15.202 19.3945 15.9222 19.3945 16.8174H15.8545C15.8545 15.735 16.1108 14.7463 16.6235 13.8511C17.1444 12.9559 17.8768 12.256 18.8208 11.7515C19.7648 11.2388 20.835 10.9824 22.0312 10.9824C23.8623 10.9824 25.2824 11.4219 26.2915 12.3008C27.3088 13.1797 27.8174 14.4207 27.8174 16.0239C27.8174 16.9028 27.5895 17.798 27.1338 18.7095C26.6781 19.6209 25.8968 20.6829 24.79 21.8955L20.7495 26.1558H28.3911V29Z" fill="white"/>
</svg>
