<svg width="51" height="56" viewBox="0 0 51 56" fill="none" xmlns="http://www.w3.org/2000/svg">
<path d="M5.01164 7.06432C-3.30717 16.9854 -0.62368 35.8808 8.31439 41.2324C22.3098 49.6098 53.5208 26.1449 50.8373 14.0626C48.4635 3.33876 17.2938 -7.52917 5.01164 7.06432Z" fill="#FFC816"/>
<path d="M16.7334 20.2598L17.7588 11.2266H27.7197V14.1685H20.6519L20.2124 17.9893C21.0506 17.5417 21.9417 17.3179 22.8857 17.3179C24.5785 17.3179 25.9049 17.8428 26.8652 18.8926C27.8255 19.9424 28.3057 21.4113 28.3057 23.2993C28.3057 24.4468 28.0615 25.4762 27.5732 26.3877C27.0931 27.291 26.4014 27.995 25.498 28.4995C24.5947 28.9959 23.5286 29.2441 22.2998 29.2441C21.2256 29.2441 20.2287 29.0285 19.3091 28.5972C18.3895 28.1577 17.6611 27.5433 17.124 26.7539C16.5951 25.9645 16.3143 25.0653 16.2817 24.0562H19.7729C19.8462 24.7967 20.1025 25.3745 20.542 25.7896C20.9896 26.1965 21.5715 26.3999 22.2876 26.3999C23.0851 26.3999 23.6995 26.1151 24.1309 25.5454C24.5622 24.9676 24.7778 24.1538 24.7778 23.104C24.7778 22.0949 24.5296 21.3218 24.0332 20.7847C23.5368 20.2476 22.8328 19.979 21.9214 19.979C21.0832 19.979 20.4036 20.1987 19.8828 20.6382L19.541 20.9556L16.7334 20.2598Z" fill="white"/>
</svg>
