<svg width="51" height="56" viewBox="0 0 51 56" fill="none" xmlns="http://www.w3.org/2000/svg">
<path d="M5.01164 7.06432C-3.30717 16.9854 -0.62368 35.8808 8.31439 41.2324C22.3098 49.6098 53.5208 26.1449 50.8373 14.0626C48.4635 3.33876 17.2938 -7.52917 5.01164 7.06432Z" fill="#FFC816"/>
<path d="M19.7974 18.5508H21.6772C22.5724 18.5508 23.2357 18.327 23.667 17.8794C24.0983 17.4318 24.314 16.8377 24.314 16.0972C24.314 15.381 24.0983 14.8236 23.667 14.4248C23.2438 14.026 22.6579 13.8267 21.9092 13.8267C21.2337 13.8267 20.6681 14.0138 20.2124 14.3882C19.7567 14.7544 19.5288 15.2345 19.5288 15.8286H16.001C16.001 14.9009 16.2492 14.0708 16.7456 13.3384C17.2502 12.5978 17.95 12.02 18.8452 11.605C19.7485 11.1899 20.7414 10.9824 21.8237 10.9824C23.7036 10.9824 25.1766 11.4341 26.2427 12.3374C27.3088 13.2326 27.8418 14.4696 27.8418 16.0483C27.8418 16.8621 27.5936 17.6108 27.0972 18.2944C26.6007 18.978 25.9497 19.5029 25.144 19.8691C26.145 20.2272 26.8896 20.7643 27.3779 21.4805C27.8743 22.1966 28.1226 23.043 28.1226 24.0195C28.1226 25.5983 27.5448 26.8638 26.3892 27.8159C25.2417 28.7681 23.7199 29.2441 21.8237 29.2441C20.0496 29.2441 18.597 28.7762 17.4658 27.8403C16.3428 26.9045 15.7812 25.6675 15.7812 24.1294H19.3091C19.3091 24.7967 19.5573 25.342 20.0537 25.7651C20.5583 26.1883 21.1768 26.3999 21.9092 26.3999C22.7474 26.3999 23.4025 26.1802 23.8745 25.7407C24.3547 25.2931 24.5947 24.7031 24.5947 23.9707C24.5947 22.1966 23.6182 21.3096 21.665 21.3096H19.7974V18.5508Z" fill="white"/>
</svg>
