<svg width="51" height="56" viewBox="0 0 51 56" fill="none" xmlns="http://www.w3.org/2000/svg">
<path d="M5.01164 7.06432C-3.30717 16.9854 -0.62368 35.8808 8.31439 41.2324C22.3098 49.6098 53.5208 26.1449 50.8373 14.0626C48.4635 3.33876 17.2938 -7.52917 5.01164 7.06432Z" fill="#FFC816"/>
<path d="M27.793 15.9507C27.793 16.8133 27.5773 17.5783 27.146 18.2456C26.7147 18.9129 26.1206 19.446 25.3638 19.8447C26.2264 20.2598 26.91 20.8335 27.4146 21.5659C27.9191 22.2902 28.1714 23.1447 28.1714 24.1294C28.1714 25.7082 27.6343 26.9574 26.5601 27.877C25.4858 28.7884 24.0251 29.2441 22.1777 29.2441C20.3304 29.2441 18.8656 28.7843 17.7832 27.8647C16.7008 26.9451 16.1597 25.7 16.1597 24.1294C16.1597 23.1447 16.4119 22.2861 16.9165 21.5537C17.4211 20.8213 18.1006 20.2516 18.9551 19.8447C18.1982 19.446 17.6042 18.9129 17.1729 18.2456C16.7497 17.5783 16.5381 16.8133 16.5381 15.9507C16.5381 14.437 17.0426 13.2326 18.0518 12.3374C19.0609 11.4341 20.4321 10.9824 22.1655 10.9824C23.8908 10.9824 25.258 11.43 26.2671 12.3252C27.2843 13.2122 27.793 14.4207 27.793 15.9507ZM24.6313 23.873C24.6313 23.0999 24.4076 22.4814 23.96 22.0176C23.5124 21.5537 22.9102 21.3218 22.1533 21.3218C21.4046 21.3218 20.8065 21.5537 20.3589 22.0176C19.9113 22.4733 19.6875 23.0918 19.6875 23.873C19.6875 24.6299 19.9072 25.2402 20.3467 25.7041C20.7861 26.168 21.3965 26.3999 22.1777 26.3999C22.9427 26.3999 23.5409 26.1761 23.9722 25.7285C24.4116 25.2809 24.6313 24.6624 24.6313 23.873ZM24.2651 16.1216C24.2651 15.4299 24.082 14.8765 23.7158 14.4614C23.3496 14.0382 22.8328 13.8267 22.1655 13.8267C21.5063 13.8267 20.9937 14.0301 20.6274 14.437C20.2612 14.8439 20.0781 15.4054 20.0781 16.1216C20.0781 16.8296 20.2612 17.3993 20.6274 17.8306C20.9937 18.2619 21.5104 18.4775 22.1777 18.4775C22.8451 18.4775 23.3577 18.2619 23.7158 17.8306C24.082 17.3993 24.2651 16.8296 24.2651 16.1216Z" fill="white"/>
</svg>
