<svg width="17" height="16" viewBox="0 0 17 16" fill="none" xmlns="http://www.w3.org/2000/svg">
<path d="M8.49915 8.57C10.9093 8.57 12.8646 6.65068 12.8646 4.285C12.8646 1.91932 10.9093 0 8.49915 0C6.08904 0 4.13366 1.91932 4.13366 4.285C4.13366 6.65068 6.08904 8.57 8.49915 8.57ZM12.3796 9.52223H10.7092C10.0362 9.82575 9.28736 9.99834 8.49915 9.99834C7.71094 9.99834 6.96517 9.82575 6.28912 9.52223H4.61872C2.47538 9.52223 0.738281 11.2273 0.738281 13.3311V13.8072C0.738281 14.5958 1.39007 15.2356 2.19344 15.2356H14.8049C15.6082 15.2356 16.26 14.5958 16.26 13.8072V13.3311C16.26 11.2273 14.5229 9.52223 12.3796 9.52223Z" fill="#FFC816"/>
</svg>
